<svg width="70" height="70" viewBox="0 0 70 70" fill="none" xmlns="http://www.w3.org/2000/svg">
<g clip-path="url(#clip0_21_821)">
<path d="M20.815 69.8435C19.5388 65.6165 17.342 63.5392 13.9886 63.4638C13.1093 63.4439 12.1802 63.5876 11.3508 63.875C10.5199 64.1638 9.6975 64.6248 9.03307 65.1968C8.36864 65.7687 7.80807 66.5199 7.37839 67.2911C6.95014 68.0579 6.741 68.9457 6.41234 69.8421C4.56986 69.8421 2.65055 69.8421 0.73124 69.8421C0.569045 69.8421 0.40685 69.8279 0.201972 69.8179V63.4453C2.2038 63.1579 3.8727 62.263 5.10909 60.6354C6.0538 59.3905 6.54608 57.9776 6.55604 56.4169C6.56742 54.5929 5.96132 52.9795 4.75055 51.6122C3.54262 50.2478 2.00035 49.488 0.187744 49.2419V42.1124C2.31478 41.7909 4.0662 40.8191 5.304 39.0222C6.19039 37.7346 6.59872 36.3004 6.56173 34.7411C6.47921 31.3734 4.45746 29.178 0.197703 27.8506V20.8136C4.16579 19.9571 6.61864 17.5925 6.50624 13.4209C6.39953 9.49553 3.97941 7.27602 0.187744 6.50915V0.200608H6.55746C6.84486 2.20244 7.7412 3.87134 9.36884 5.10772C10.6138 6.05244 12.028 6.54471 13.5873 6.55325C15.4113 6.56463 17.0247 5.95854 18.392 4.74634C19.7564 3.53841 20.5162 1.99614 20.7623 0.183535H27.8107C28.0597 0.9376 28.2418 1.69878 28.5548 2.40162C29.7727 5.13191 32.7918 6.87906 35.6203 6.53902C38.941 6.14065 41.4451 3.85569 41.9999 0.702844C42.0583 0.369917 42.1138 0.142275 42.5477 0.146543C44.7516 0.166462 46.9568 0.156503 49.1835 0.156503C50.0485 4.16301 52.4146 6.61585 56.5847 6.50345C60.5101 6.39675 62.7296 3.97662 63.4951 0.184958H69.8036V6.55325C67.8003 6.83923 66.1314 7.73699 64.8965 9.36463C63.9518 10.6096 63.4595 12.0224 63.451 13.5831C63.4396 15.4071 64.0471 17.0205 65.2579 18.3878C66.4658 19.7522 68.0081 20.512 69.8207 20.7567V27.8734C69.3611 27.9772 68.8959 28.0512 68.4491 28.1892C65.3717 29.1411 63.266 32.1858 63.4467 35.4026C63.6302 38.6622 66.0802 41.4281 69.3014 41.9943C69.6343 42.0526 69.8605 42.1081 69.8577 42.5421C69.8377 44.7459 69.8477 46.9512 69.8477 49.1778C65.8412 50.0443 63.3884 52.4089 63.5008 56.5805C63.6075 60.5059 66.0276 62.7254 69.8192 63.4909V69.7994H63.451C63.1636 67.7961 62.2672 66.1272 60.6396 64.8923C59.3947 63.9476 57.9818 63.4553 56.4211 63.4468C54.5971 63.4354 52.9837 64.0415 51.6164 65.2537C50.2534 66.4616 49.4922 68.0039 49.2461 69.8165H42.1977C41.9487 69.0624 41.7666 68.3012 41.4536 67.5984C40.2357 64.8695 37.2209 63.1238 34.3896 63.461C31.0731 63.8565 28.5619 66.1472 28.0099 69.2972C27.9516 69.6301 27.8975 69.8577 27.4621 69.8535C25.2583 69.8335 23.053 69.8435 20.8192 69.8435H20.815Z" fill="#90C9F6"/>
</g>
<defs>
<clipPath id="clip0_21_821">
<rect width="70" height="70" fill="white"/>
</clipPath>
</defs>
</svg>
