<svg width="187" height="66" viewBox="0 0 187 66" fill="none" xmlns="http://www.w3.org/2000/svg">
<g clip-path="url(#clip0_2003_58)">
<path d="M105.218 55.9306C104.653 54.0587 103.68 53.1387 102.195 53.1054C101.806 53.0965 101.394 53.1602 101.027 53.2874C100.659 53.4154 100.295 53.6195 100 53.8728C99.7061 54.1261 99.4578 54.4588 99.2676 54.8003C99.0779 55.1399 98.9853 55.5331 98.8397 55.93C98.0238 55.93 97.1738 55.93 96.3238 55.93C96.252 55.93 96.1802 55.9237 96.0894 55.9193V53.0972C96.976 52.9699 97.715 52.5736 98.2626 51.8528C98.681 51.3014 98.899 50.6758 98.9034 49.9846C98.9084 49.1768 98.64 48.4623 98.1038 47.8568C97.5689 47.2525 96.8859 46.9161 96.0831 46.8071V43.6497C97.0251 43.5073 97.8007 43.077 98.3489 42.2812C98.7414 41.711 98.9223 41.0758 98.9059 40.3853C98.8693 38.8939 97.974 37.9217 96.0875 37.3338V34.2174C97.8448 33.8381 98.9311 32.7909 98.8813 30.9435C98.8341 29.2051 97.7623 28.2222 96.0831 27.8826V25.0888H98.904C99.0313 25.9753 99.4282 26.7144 100.149 27.2619C100.7 27.6803 101.327 27.8983 102.017 27.9021C102.825 27.9071 103.54 27.6387 104.145 27.1019C104.749 26.567 105.086 25.884 105.195 25.0812H108.316C108.426 25.4152 108.507 25.7523 108.646 26.0635C109.185 27.2727 110.522 28.0464 111.775 27.8958C113.245 27.7194 114.354 26.7075 114.6 25.3112C114.626 25.1638 114.65 25.063 114.843 25.0648C115.819 25.0737 116.795 25.0693 117.781 25.0693C118.164 26.8436 119.212 27.9298 121.059 27.88C122.797 27.8328 123.78 26.761 124.119 25.0819H126.913V27.9021C126.026 28.0287 125.287 28.4263 124.74 29.1471C124.321 29.6985 124.103 30.3241 124.1 31.0153C124.095 31.8231 124.364 32.5376 124.9 33.1431C125.435 33.7474 126.118 34.0838 126.921 34.1922V37.3439C126.717 37.3899 126.511 37.4226 126.313 37.4837C124.95 37.9053 124.018 39.2536 124.098 40.6783C124.179 42.1218 125.264 43.3467 126.691 43.5974C126.838 43.6233 126.938 43.6478 126.937 43.84C126.928 44.816 126.933 45.7926 126.933 46.7787C125.158 47.1624 124.072 48.2096 124.122 50.057C124.169 51.7954 125.241 52.7783 126.92 53.1173V55.9111H124.1C123.972 55.024 123.575 54.2849 122.855 53.738C122.303 53.3196 121.678 53.1016 120.986 53.0978C120.179 53.0928 119.464 53.3612 118.859 53.898C118.255 54.4329 117.918 55.1159 117.809 55.9187H114.688C114.577 55.5847 114.497 55.2476 114.358 54.9364C113.819 53.7279 112.484 52.9548 111.23 53.1041C109.761 53.2793 108.649 54.2937 108.404 55.6887C108.379 55.8361 108.355 55.9369 108.162 55.935C107.186 55.9262 106.209 55.9306 105.22 55.9306H105.218Z" fill="black"/>
</g>
<path d="M16.08 51.488H16.176L22.896 30.896H28.8V56H24.768V35.792H24.672L18.048 56H13.92L7.296 35.792H7.2V56H3.168V30.896H9.456L16.08 51.488ZM56.4968 47.984C56.3528 49.088 55.9688 50.144 55.3928 51.2C54.8168 52.256 54.0488 53.168 53.0888 53.984C52.1768 54.848 51.0728 55.52 49.8248 56C48.5288 56.528 47.0888 56.768 45.5528 56.768C43.8728 56.768 42.3368 56.48 40.8968 55.952C39.4568 55.376 38.2088 54.56 37.2008 53.408C36.1448 52.304 35.3288 50.912 34.7528 49.232C34.1288 47.552 33.8408 45.536 33.8408 43.28C33.8408 41.744 33.9848 40.352 34.3688 39.104C34.7048 37.856 35.1367 36.752 35.7128 35.792C36.2888 34.832 36.9608 33.968 37.6808 33.248C38.4488 32.528 39.2168 31.952 40.0808 31.472C40.8968 31.04 41.7608 30.704 42.6248 30.464C43.4888 30.224 44.3528 30.128 45.1688 30.128C46.8968 30.128 48.4328 30.368 49.8728 30.896C51.3128 31.424 52.5128 32.192 53.5688 33.248C54.5768 34.304 55.3448 35.648 55.9688 37.184C56.4968 38.816 56.7848 40.688 56.7848 42.8V44.96H38.4488C38.4488 46.16 38.6408 47.264 38.9768 48.272C39.2648 49.28 39.7448 50.096 40.3688 50.816C40.9448 51.536 41.7128 52.064 42.5768 52.448C43.4408 52.832 44.4008 53.024 45.5048 53.024C46.6088 53.024 47.5688 52.88 48.3368 52.544C49.1048 52.256 49.7288 51.872 50.2568 51.344C50.7848 50.864 51.1688 50.336 51.5048 49.76C51.8408 49.136 52.0808 48.56 52.3208 47.984H56.4968ZM52.4648 41.504C52.4168 40.304 52.2248 39.2 51.9368 38.24C51.5528 37.28 51.0728 36.512 50.4968 35.84C49.9208 35.216 49.1528 34.736 48.3368 34.352C47.4728 34.016 46.5608 33.872 45.5048 33.872C44.5448 33.872 43.6328 34.064 42.8168 34.448C41.9528 34.832 41.2328 35.36 40.6088 36.032C39.9848 36.704 39.5048 37.52 39.1208 38.432C38.7368 39.392 38.4968 40.4 38.4488 41.504H52.4648ZM74.7206 51.488H74.8166L81.5366 30.896H87.4406V56H83.4086V35.792H83.3126L76.6886 56H72.5606L65.9366 35.792H65.8406V56H61.8086V30.896H68.0966L74.7206 51.488Z" fill="black"/>
<path d="M139.248 34.352H139.344C139.632 33.776 139.968 33.2 140.4 32.72C140.832 32.192 141.36 31.76 141.984 31.328C142.56 30.992 143.232 30.656 144.048 30.464C144.816 30.224 145.728 30.128 146.736 30.128C148.08 30.128 149.376 30.368 150.624 30.896C151.872 31.424 152.928 32.192 153.888 33.2C154.848 34.256 155.616 35.552 156.144 37.088C156.72 38.672 157.008 40.448 157.008 42.512C157.008 45.104 156.768 47.264 156.24 49.088C155.712 50.912 154.992 52.352 153.984 53.504C153.024 54.656 151.872 55.472 150.528 56C149.136 56.528 147.648 56.768 145.968 56.768C145.152 56.768 144.384 56.672 143.664 56.432C142.944 56.24 142.272 55.952 141.744 55.568C141.12 55.232 140.64 54.848 140.256 54.416C139.872 53.984 139.536 53.552 139.344 53.168H139.248V65.888H134.928V30.896H139.248V34.352ZM139.152 43.568C139.152 44.96 139.296 46.16 139.536 47.312C139.824 48.464 140.208 49.472 140.784 50.336C141.312 51.152 142.032 51.824 142.896 52.304C143.712 52.784 144.672 53.024 145.824 53.024C147.024 53.024 148.032 52.784 148.944 52.304C149.808 51.824 150.48 51.152 151.056 50.336C151.632 49.472 152.016 48.464 152.304 47.312C152.544 46.16 152.688 44.96 152.688 43.568C152.688 42.128 152.544 40.88 152.304 39.68C152.016 38.48 151.632 37.472 151.056 36.608C150.48 35.744 149.808 35.072 148.944 34.592C148.032 34.112 147.024 33.872 145.824 33.872C144.672 33.872 143.712 34.112 142.896 34.592C142.032 35.072 141.312 35.744 140.784 36.608C140.208 37.472 139.824 38.48 139.536 39.68C139.296 40.88 139.152 42.128 139.152 43.568ZM166.16 50.144H166.256L178.592 30.896H183.536V56H179.168V36.752H179.072L166.784 56H161.84V30.896H166.16V50.144Z" fill="black"/>
<defs>
<clipPath id="clip0_2003_58">
<rect width="31" height="31" fill="white" transform="translate(96 25)"/>
</clipPath>
</defs>
</svg>
