<svg width="656" height="656" viewBox="0 0 656 656" fill="none" xmlns="http://www.w3.org/2000/svg">
<g filter="url(#filter0_f_13_47)">
<path d="M208.09 621.915C197.319 586.259 178.778 568.737 150.476 568.101C143.055 567.933 135.214 569.145 128.213 571.569C121.201 574.006 114.26 577.894 108.653 582.719C103.045 587.543 98.314 593.88 94.6876 600.385C91.0733 606.854 89.3081 614.343 86.5343 621.904C70.9841 621.904 54.7856 621.904 38.587 621.904C37.2181 621.904 35.8492 621.783 34.1201 621.699V567.945C51.0151 565.521 65.1003 557.972 75.5351 544.242C83.5083 533.741 87.663 521.823 87.7471 508.658C87.8431 493.272 82.7278 479.662 72.5091 468.129C62.3145 456.62 49.298 450.211 34 448.135V387.995C51.9517 385.283 66.7334 377.086 77.1802 361.928C84.6611 351.067 88.1073 338.969 87.7951 325.816C87.0987 297.408 70.0355 278.89 34.0841 267.693V208.334C67.5739 201.109 88.2754 181.162 87.3268 145.974C86.4262 112.862 66.0009 94.1398 34 87.671V34.4566H87.7591C90.1847 51.3426 97.7496 65.4203 111.487 75.8495C121.993 83.8185 133.929 87.971 147.09 88.043C162.484 88.139 176.101 83.0264 187.64 72.8012C199.156 62.612 205.568 49.6024 207.645 34.3125H267.132C269.234 40.6733 270.771 47.0941 273.412 53.0228C283.691 76.0536 309.172 90.7914 333.043 87.923C361.069 84.5626 382.203 65.2883 386.886 38.6931C387.379 35.8847 387.847 33.9645 391.509 34.0005C410.109 34.1685 428.722 34.0845 447.514 34.0845C454.815 67.8806 474.784 88.5711 509.979 87.623C543.108 86.7229 561.841 66.3084 568.301 34.3245H621.543V88.043C604.636 90.4553 590.551 98.0282 580.128 111.758C572.155 122.259 568.001 134.177 567.928 147.342C567.832 162.728 572.96 176.338 583.178 187.871C593.373 199.38 606.39 205.789 621.688 207.853V267.885C617.809 268.761 613.883 269.385 610.112 270.549C584.139 278.578 566.367 304.261 567.892 331.396C569.441 358.892 590.119 382.223 617.305 386.999C620.115 387.491 622.024 387.959 622 391.62C621.832 410.21 621.916 428.812 621.916 447.594C588.102 454.903 567.4 474.85 568.349 510.038C569.249 543.15 589.675 561.872 621.676 568.329V621.543H567.928C565.503 604.645 557.938 590.568 544.201 580.15C533.694 572.182 521.77 568.029 508.598 567.957C493.204 567.861 479.587 572.974 468.047 583.199C456.544 593.388 450.12 606.398 448.042 621.687H388.555C386.454 615.327 384.917 608.906 382.275 602.977C371.997 579.958 346.552 565.233 322.656 568.077C294.666 571.413 273.472 590.736 268.813 617.307C268.321 620.115 267.865 622.036 264.19 622C245.59 621.831 226.978 621.915 208.126 621.915H208.09Z" fill="#90C9F6"/>
</g>
<defs>
<filter id="filter0_f_13_47" x="0.0999985" y="0.0999985" width="655.8" height="655.8" filterUnits="userSpaceOnUse" color-interpolation-filters="sRGB">
<feFlood flood-opacity="0" result="BackgroundImageFix"/>
<feBlend mode="normal" in="SourceGraphic" in2="BackgroundImageFix" result="shape"/>
<feGaussianBlur stdDeviation="16.95" result="effect1_foregroundBlur_13_47"/>
</filter>
</defs>
</svg>
