<svg width="685" height="476" viewBox="0 0 685 476" fill="none" xmlns="http://www.w3.org/2000/svg">
<rect width="685" height="476" rx="20" fill="#CBD9E1"/>
<path d="M152.88 198.33L160.702 180.582H163.972L154.281 203H151.479L141.963 180.582H145.174L152.88 198.33ZM144.064 180.582V203H140.62V180.582H144.064ZM161.695 203V180.582H165.139V203H161.695ZM174.421 188.697H180.843C183.47 188.697 185.479 189.364 186.871 190.697C188.262 192.03 188.958 193.718 188.958 195.761C188.958 197.104 188.646 198.325 188.024 199.424C187.401 200.514 186.486 201.385 185.28 202.037C184.073 202.679 182.595 203 180.843 203H171.444V180.582H174.888V199.789H180.843C182.205 199.789 183.324 199.429 184.2 198.709C185.076 197.989 185.513 197.065 185.513 195.936C185.513 194.749 185.076 193.781 184.2 193.032C183.324 192.283 182.205 191.908 180.843 191.908H174.421V188.697ZM192.519 203V180.582H195.963V203H192.519ZM228.831 190.215V193.426H216.454V190.215H228.831ZM217.272 180.582V203H213.827V180.582H217.272ZM231.458 180.582V203H228.013V180.582H231.458ZM244.345 203.525C242.924 203.525 241.635 203.258 240.477 202.723C239.319 202.178 238.4 201.395 237.719 200.373C237.038 199.342 236.697 198.096 236.697 196.637C236.697 195.352 236.95 194.311 237.456 193.513C237.962 192.706 238.638 192.073 239.485 191.616C240.331 191.159 241.265 190.818 242.287 190.594C243.318 190.361 244.355 190.176 245.396 190.04C246.758 189.865 247.862 189.733 248.709 189.646C249.565 189.549 250.188 189.388 250.577 189.164C250.976 188.94 251.175 188.551 251.175 187.997V187.88C251.175 186.44 250.781 185.321 249.993 184.523C249.215 183.725 248.032 183.326 246.447 183.326C244.802 183.326 243.513 183.686 242.579 184.406C241.645 185.126 240.988 185.895 240.609 186.712L237.339 185.545C237.923 184.183 238.702 183.122 239.675 182.363C240.657 181.594 241.728 181.059 242.885 180.758C244.053 180.446 245.201 180.291 246.33 180.291C247.05 180.291 247.877 180.378 248.811 180.553C249.755 180.719 250.664 181.064 251.54 181.59C252.425 182.115 253.16 182.908 253.744 183.968C254.328 185.029 254.62 186.45 254.62 188.23V203H251.175V199.964H251C250.767 200.451 250.377 200.971 249.832 201.526C249.288 202.081 248.563 202.552 247.658 202.942C246.753 203.331 245.649 203.525 244.345 203.525ZM244.87 200.431C246.232 200.431 247.381 200.164 248.315 199.629C249.258 199.093 249.969 198.403 250.445 197.556C250.932 196.71 251.175 195.819 251.175 194.885V191.733C251.029 191.908 250.708 192.069 250.212 192.214C249.725 192.351 249.161 192.472 248.519 192.579C247.887 192.677 247.269 192.764 246.665 192.842C246.072 192.91 245.59 192.969 245.221 193.017C244.325 193.134 243.489 193.324 242.71 193.586C241.942 193.839 241.319 194.224 240.842 194.739C240.375 195.245 240.142 195.936 240.142 196.812C240.142 198.009 240.584 198.913 241.47 199.526C242.365 200.13 243.498 200.431 244.87 200.431ZM260.906 203V180.582H278.537V203H275.092V183.793H264.351V203H260.906ZM288.271 197.921L299.072 180.582H303.041V203H299.597V185.661L288.855 203H284.827V180.582H288.271V197.921ZM309.35 180.582H312.794V199.789H321.259V180.582H324.704V199.789H333.168V180.582H336.613V203H309.35V180.582ZM352.302 203.467C350.142 203.467 348.279 202.99 346.712 202.037C345.156 201.073 343.954 199.731 343.108 198.009C342.271 196.277 341.852 194.263 341.852 191.966C341.852 189.67 342.271 187.646 343.108 185.895C343.954 184.134 345.131 182.762 346.639 181.779C348.157 180.787 349.928 180.291 351.952 180.291C353.12 180.291 354.273 180.485 355.411 180.874C356.549 181.264 357.586 181.896 358.52 182.772C359.454 183.638 360.198 184.786 360.753 186.216C361.307 187.646 361.584 189.407 361.584 191.499V192.959H344.304V189.981H358.082C358.082 188.717 357.829 187.588 357.323 186.596C356.827 185.603 356.116 184.82 355.192 184.246C354.277 183.672 353.197 183.385 351.952 183.385C350.58 183.385 349.393 183.725 348.391 184.406C347.398 185.078 346.635 185.953 346.099 187.033C345.564 188.113 345.297 189.271 345.297 190.507V192.492C345.297 194.185 345.589 195.62 346.172 196.797C346.766 197.965 347.588 198.855 348.639 199.468C349.69 200.071 350.911 200.373 352.302 200.373C353.207 200.373 354.024 200.246 354.754 199.993C355.494 199.731 356.131 199.342 356.666 198.826C357.201 198.3 357.615 197.649 357.907 196.87L361.234 197.804C360.884 198.933 360.295 199.925 359.468 200.782C358.641 201.628 357.62 202.29 356.403 202.766C355.187 203.234 353.82 203.467 352.302 203.467ZM379.084 198.33L386.906 180.582H390.176L380.485 203H377.682L368.167 180.582H371.378L379.084 198.33ZM370.268 180.582V203H366.824V180.582H370.268ZM387.899 203V180.582H391.343V203H387.899ZM406.814 209.422V199.789H408.682C409.139 199.312 409.533 198.797 409.864 198.242C410.195 197.688 410.482 197.031 410.725 196.272C410.978 195.503 411.192 194.569 411.367 193.47C411.542 192.36 411.698 191.023 411.834 189.456L412.593 180.582H426.838V199.789H430.282V209.422H426.838V203H410.258V209.422H406.814ZM412.593 199.789H423.393V183.793H415.804L415.22 189.456C414.977 191.801 414.675 193.849 414.315 195.6C413.955 197.352 413.381 198.748 412.593 199.789ZM444.253 203.467C442.093 203.467 440.229 202.99 438.663 202.037C437.106 201.073 435.905 199.731 435.058 198.009C434.221 196.277 433.803 194.263 433.803 191.966C433.803 189.67 434.221 187.646 435.058 185.895C435.905 184.134 437.082 182.762 438.59 181.779C440.108 180.787 441.879 180.291 443.902 180.291C445.07 180.291 446.223 180.485 447.361 180.874C448.5 181.264 449.536 181.896 450.47 182.772C451.404 183.638 452.148 184.786 452.703 186.216C453.258 187.646 453.535 189.407 453.535 191.499V192.959H436.255V189.981H450.032C450.032 188.717 449.779 187.588 449.273 186.596C448.777 185.603 448.067 184.82 447.142 184.246C446.228 183.672 445.148 183.385 443.902 183.385C442.531 183.385 441.343 183.725 440.341 184.406C439.349 185.078 438.585 185.953 438.05 187.033C437.515 188.113 437.247 189.271 437.247 190.507V192.492C437.247 194.185 437.539 195.62 438.123 196.797C438.716 197.965 439.539 198.855 440.589 199.468C441.64 200.071 442.861 200.373 444.253 200.373C445.158 200.373 445.975 200.246 446.705 199.993C447.444 199.731 448.081 199.342 448.617 198.826C449.152 198.3 449.565 197.649 449.857 196.87L453.185 197.804C452.834 198.933 452.246 199.925 451.419 200.782C450.592 201.628 449.57 202.29 448.354 202.766C447.138 203.234 445.771 203.467 444.253 203.467ZM456.687 183.793V180.582H474.902V183.793H467.546V203H464.102V183.793H456.687ZM485.359 203.525C483.938 203.525 482.649 203.258 481.491 202.723C480.333 202.178 479.414 201.395 478.733 200.373C478.052 199.342 477.711 198.096 477.711 196.637C477.711 195.352 477.964 194.311 478.47 193.513C478.976 192.706 479.652 192.073 480.499 191.616C481.345 191.159 482.279 190.818 483.301 190.594C484.332 190.361 485.369 190.176 486.41 190.04C487.772 189.865 488.876 189.733 489.723 189.646C490.579 189.549 491.202 189.388 491.591 189.164C491.99 188.94 492.189 188.551 492.189 187.997V187.88C492.189 186.44 491.795 185.321 491.007 184.523C490.229 183.725 489.046 183.326 487.46 183.326C485.816 183.326 484.527 183.686 483.593 184.406C482.659 185.126 482.002 185.895 481.623 186.712L478.353 185.545C478.937 184.183 479.716 183.122 480.689 182.363C481.671 181.594 482.742 181.059 483.899 180.758C485.067 180.446 486.215 180.291 487.344 180.291C488.064 180.291 488.891 180.378 489.825 180.553C490.769 180.719 491.678 181.064 492.554 181.59C493.439 182.115 494.174 182.908 494.758 183.968C495.342 185.029 495.634 186.45 495.634 188.23V203H492.189V199.964H492.014C491.781 200.451 491.391 200.971 490.846 201.526C490.302 202.081 489.577 202.552 488.672 202.942C487.767 203.331 486.663 203.525 485.359 203.525ZM485.884 200.431C487.246 200.431 488.395 200.164 489.329 199.629C490.272 199.093 490.983 198.403 491.459 197.556C491.946 196.71 492.189 195.819 492.189 194.885V191.733C492.043 191.908 491.722 192.069 491.226 192.214C490.739 192.351 490.175 192.472 489.533 192.579C488.901 192.677 488.283 192.764 487.679 192.842C487.086 192.91 486.604 192.969 486.235 193.017C485.339 193.134 484.503 193.324 483.724 193.586C482.956 193.839 482.333 194.224 481.856 194.739C481.389 195.245 481.156 195.936 481.156 196.812C481.156 198.009 481.598 198.913 482.484 199.526C483.379 200.13 484.512 200.431 485.884 200.431ZM499.935 203V199.789H500.753C501.424 199.789 501.983 199.658 502.431 199.395C502.879 199.123 503.239 198.651 503.511 197.979C503.793 197.298 504.007 196.355 504.153 195.148C504.309 193.932 504.421 192.385 504.489 190.507L504.898 180.582H519.843V203H516.398V183.793H508.167L507.817 191.791C507.739 193.63 507.573 195.25 507.32 196.651C507.077 198.043 506.702 199.21 506.196 200.154C505.7 201.098 505.039 201.808 504.212 202.285C503.385 202.762 502.348 203 501.103 203H499.935ZM529.606 197.921L540.407 180.582H544.376V203H540.932V185.661L530.19 203H526.162V180.582H529.606V197.921ZM162.651 253.467C160.627 253.467 158.851 252.985 157.324 252.022C155.806 251.059 154.619 249.711 153.763 247.979C152.916 246.247 152.493 244.224 152.493 241.908C152.493 239.573 152.916 237.534 153.763 235.793C154.619 234.051 155.806 232.699 157.324 231.735C158.851 230.772 160.627 230.291 162.651 230.291C164.675 230.291 166.445 230.772 167.963 231.735C169.491 232.699 170.678 234.051 171.524 235.793C172.381 237.534 172.809 239.573 172.809 241.908C172.809 244.224 172.381 246.247 171.524 247.979C170.678 249.711 169.491 251.059 167.963 252.022C166.445 252.985 164.675 253.467 162.651 253.467ZM162.651 250.373C164.188 250.373 165.453 249.979 166.445 249.191C167.438 248.403 168.172 247.366 168.649 246.082C169.126 244.798 169.364 243.406 169.364 241.908C169.364 240.41 169.126 239.013 168.649 237.719C168.172 236.425 167.438 235.379 166.445 234.581C165.453 233.784 164.188 233.385 162.651 233.385C161.113 233.385 159.849 233.784 158.856 234.581C157.864 235.379 157.129 236.425 156.652 237.719C156.176 239.013 155.937 240.41 155.937 241.908C155.937 243.406 156.176 244.798 156.652 246.082C157.129 247.366 157.864 248.403 158.856 249.191C159.849 249.979 161.113 250.373 162.651 250.373ZM189.626 253V230.582H198.791C201.204 230.582 203.121 231.127 204.541 232.217C205.962 233.307 206.672 234.747 206.672 236.537C206.672 237.899 206.268 238.955 205.461 239.704C204.653 240.444 203.617 240.945 202.352 241.207C203.179 241.324 203.982 241.616 204.76 242.083C205.548 242.55 206.2 243.192 206.716 244.01C207.232 244.817 207.49 245.81 207.49 246.987C207.49 248.135 207.198 249.162 206.614 250.066C206.03 250.971 205.193 251.686 204.104 252.212C203.014 252.737 201.71 253 200.192 253H189.626ZM192.895 249.848H200.192C201.379 249.848 202.308 249.565 202.98 249.001C203.651 248.437 203.987 247.668 203.987 246.695C203.987 245.537 203.651 244.627 202.98 243.966C202.308 243.294 201.379 242.959 200.192 242.959H192.895V249.848ZM192.895 239.981H198.791C199.715 239.981 200.508 239.855 201.17 239.602C201.832 239.339 202.338 238.97 202.688 238.493C203.048 238.006 203.228 237.432 203.228 236.771C203.228 235.827 202.834 235.087 202.046 234.552C201.258 234.007 200.173 233.735 198.791 233.735H192.895V239.981ZM219.3 253.525C217.88 253.525 216.591 253.258 215.433 252.723C214.275 252.178 213.355 251.395 212.674 250.373C211.993 249.342 211.653 248.096 211.653 246.637C211.653 245.352 211.906 244.311 212.412 243.513C212.918 242.706 213.594 242.073 214.44 241.616C215.287 241.159 216.221 240.818 217.242 240.594C218.274 240.361 219.31 240.176 220.351 240.04C221.713 239.865 222.818 239.733 223.664 239.646C224.52 239.549 225.143 239.388 225.532 239.164C225.931 238.94 226.131 238.551 226.131 237.997V237.88C226.131 236.44 225.737 235.321 224.948 234.523C224.17 233.725 222.988 233.326 221.402 233.326C219.758 233.326 218.468 233.686 217.534 234.406C216.6 235.126 215.944 235.895 215.564 236.712L212.295 235.545C212.879 234.183 213.657 233.122 214.63 232.363C215.613 231.594 216.683 231.059 217.841 230.758C219.008 230.446 220.157 230.291 221.285 230.291C222.005 230.291 222.832 230.378 223.766 230.553C224.71 230.719 225.62 231.064 226.496 231.59C227.381 232.115 228.116 232.908 228.699 233.968C229.283 235.029 229.575 236.45 229.575 238.23V253H226.131V249.964H225.956C225.722 250.451 225.333 250.971 224.788 251.526C224.243 252.081 223.518 252.552 222.613 252.942C221.708 253.331 220.604 253.525 219.3 253.525ZM219.826 250.431C221.188 250.431 222.336 250.164 223.27 249.629C224.214 249.093 224.924 248.403 225.401 247.556C225.887 246.71 226.131 245.819 226.131 244.885V241.733C225.985 241.908 225.664 242.069 225.167 242.214C224.681 242.351 224.117 242.472 223.474 242.579C222.842 242.677 222.224 242.764 221.621 242.842C221.027 242.91 220.546 242.969 220.176 243.017C219.281 243.134 218.444 243.324 217.666 243.586C216.897 243.839 216.274 244.224 215.798 244.739C215.331 245.245 215.097 245.936 215.097 246.812C215.097 248.009 215.54 248.913 216.425 249.526C217.32 250.13 218.454 250.431 219.826 250.431ZM235.862 230.582H239.306V249.789H247.771V230.582H251.215V249.789H259.68V230.582H263.125V253H235.862V230.582ZM278.814 253.467C276.654 253.467 274.791 252.99 273.224 252.037C271.667 251.073 270.466 249.731 269.619 248.009C268.783 246.277 268.364 244.263 268.364 241.966C268.364 239.67 268.783 237.646 269.619 235.895C270.466 234.134 271.643 232.762 273.151 231.779C274.669 230.787 276.44 230.291 278.464 230.291C279.631 230.291 280.784 230.485 281.923 230.874C283.061 231.264 284.097 231.896 285.031 232.772C285.965 233.638 286.71 234.786 287.264 236.216C287.819 237.646 288.096 239.407 288.096 241.499V242.959H270.816V239.981H284.594C284.594 238.717 284.341 237.588 283.835 236.596C283.338 235.603 282.628 234.82 281.704 234.246C280.789 233.672 279.709 233.385 278.464 233.385C277.092 233.385 275.905 233.725 274.903 234.406C273.91 235.078 273.146 235.953 272.611 237.033C272.076 238.113 271.809 239.271 271.809 240.507V242.492C271.809 244.185 272.1 245.62 272.684 246.797C273.278 247.965 274.1 248.855 275.151 249.468C276.202 250.071 277.423 250.373 278.814 250.373C279.719 250.373 280.536 250.246 281.266 249.993C282.005 249.731 282.643 249.342 283.178 248.826C283.713 248.3 284.127 247.649 284.418 246.87L287.746 247.804C287.396 248.933 286.807 249.925 285.98 250.782C285.153 251.628 284.131 252.29 282.915 252.766C281.699 253.234 280.332 253.467 278.814 253.467ZM296.78 247.921L307.58 230.582H311.55V253H308.106V235.661L297.364 253H293.336V230.582H296.78V247.921ZM305.303 223.11H308.514C308.514 224.686 307.969 225.975 306.88 226.978C305.79 227.98 304.311 228.481 302.443 228.481C300.604 228.481 299.14 227.98 298.05 226.978C296.97 225.975 296.43 224.686 296.43 223.11H299.641C299.641 223.869 299.85 224.535 300.268 225.109C300.696 225.684 301.421 225.971 302.443 225.971C303.465 225.971 304.194 225.684 304.632 225.109C305.08 224.535 305.303 223.869 305.303 223.11ZM336.832 233.501C336.053 233.511 335.27 233.711 334.482 234.1C333.704 234.489 333.052 235.005 332.526 235.647C332.011 236.279 331.753 236.985 331.753 237.763H328.367C328.367 236.79 328.6 235.856 329.067 234.961C329.534 234.066 330.162 233.268 330.95 232.567C331.748 231.867 332.653 231.312 333.665 230.904C334.686 230.495 335.742 230.291 336.832 230.291C338.875 230.291 340.607 230.806 342.027 231.838C343.458 232.869 344.543 234.231 345.282 235.924C346.031 237.617 346.406 239.456 346.406 241.441V242.258C346.406 244.233 346.031 246.072 345.282 247.775C344.543 249.468 343.458 250.83 342.027 251.862C340.607 252.893 338.875 253.409 336.832 253.409C335.197 253.409 333.743 253.049 332.468 252.329C331.193 251.599 330.191 250.626 329.461 249.41C328.732 248.193 328.367 246.841 328.367 245.352H331.753C331.753 246.199 331.991 246.992 332.468 247.731C332.954 248.461 333.582 249.055 334.351 249.512C335.129 249.959 335.956 250.188 336.832 250.198C338.136 250.188 339.245 249.779 340.159 248.972C341.074 248.164 341.77 247.152 342.246 245.936C342.723 244.72 342.962 243.494 342.962 242.258V241.441C342.962 240.176 342.723 238.94 342.246 237.734C341.779 236.518 341.089 235.511 340.174 234.713C339.269 233.915 338.155 233.511 336.832 233.501ZM344.363 240.098V243.309H334.555V240.098H344.363ZM351.653 253V230.582H355.097V240.332H357.374L365.43 230.582H369.867L360.818 241.383L369.984 253H365.547L358.191 243.543H355.097V253H351.653ZM381.911 253.467C379.81 253.467 378 252.971 376.482 251.978C374.964 250.986 373.797 249.619 372.979 247.877C372.162 246.136 371.753 244.146 371.753 241.908C371.753 239.631 372.172 237.622 373.008 235.88C373.855 234.129 375.032 232.762 376.54 231.779C378.058 230.787 379.829 230.291 381.853 230.291C383.429 230.291 384.85 230.582 386.115 231.166C387.379 231.75 388.416 232.567 389.223 233.618C390.031 234.669 390.532 235.895 390.727 237.296H387.282C387.019 236.274 386.436 235.37 385.531 234.581C384.636 233.784 383.429 233.385 381.911 233.385C380.569 233.385 379.391 233.735 378.379 234.435C377.377 235.126 376.594 236.104 376.03 237.369C375.475 238.624 375.198 240.098 375.198 241.791C375.198 243.523 375.47 245.031 376.015 246.316C376.57 247.6 377.348 248.597 378.35 249.308C379.362 250.018 380.549 250.373 381.911 250.373C382.806 250.373 383.619 250.217 384.349 249.906C385.078 249.595 385.696 249.147 386.202 248.563C386.708 247.979 387.068 247.279 387.282 246.462H390.727C390.532 247.785 390.05 248.977 389.282 250.037C388.523 251.088 387.516 251.925 386.261 252.548C385.015 253.161 383.565 253.467 381.911 253.467ZM395.762 253V230.582H399.206V240.332H401.483L409.539 230.582H413.976L404.927 241.383L414.093 253H409.656L402.3 243.543H399.206V253H395.762ZM420.055 261.407C419.471 261.407 418.95 261.358 418.493 261.261C418.036 261.173 417.719 261.085 417.544 260.998L418.42 257.962C419.257 258.176 419.996 258.254 420.638 258.196C421.281 258.137 421.85 257.85 422.346 257.335C422.852 256.829 423.314 256.007 423.733 254.868L424.375 253.117L416.085 230.582H419.821L426.009 248.446H426.243L432.431 230.582H436.167L426.651 256.269C426.223 257.427 425.693 258.385 425.061 259.144C424.428 259.913 423.694 260.482 422.857 260.852C422.03 261.222 421.096 261.407 420.055 261.407ZM440.713 261.407V230.582H444.041V234.144H444.45C444.703 233.754 445.053 233.258 445.501 232.655C445.958 232.042 446.61 231.497 447.456 231.02C448.312 230.534 449.47 230.291 450.93 230.291C452.817 230.291 454.481 230.762 455.921 231.706C457.361 232.65 458.485 233.988 459.293 235.72C460.1 237.452 460.504 239.495 460.504 241.85C460.504 244.224 460.1 246.282 459.293 248.023C458.485 249.755 457.366 251.098 455.936 252.051C454.506 252.995 452.856 253.467 450.988 253.467C449.548 253.467 448.395 253.229 447.529 252.752C446.663 252.265 445.997 251.716 445.53 251.103C445.063 250.48 444.703 249.964 444.45 249.556H444.158V261.407H440.713ZM444.099 241.791C444.099 243.484 444.348 244.978 444.844 246.272C445.34 247.556 446.065 248.563 447.018 249.293C447.972 250.013 449.14 250.373 450.521 250.373C451.961 250.373 453.163 249.993 454.126 249.235C455.099 248.466 455.829 247.435 456.315 246.14C456.812 244.837 457.06 243.387 457.06 241.791C457.06 240.215 456.816 238.794 456.33 237.53C455.853 236.255 455.128 235.248 454.155 234.508C453.192 233.759 451.981 233.385 450.521 233.385C449.12 233.385 447.943 233.74 446.989 234.45C446.036 235.151 445.316 236.133 444.829 237.398C444.343 238.653 444.099 240.118 444.099 241.791ZM474.865 253.467C472.764 253.467 470.954 252.971 469.436 251.978C467.918 250.986 466.75 249.619 465.933 247.877C465.116 246.136 464.707 244.146 464.707 241.908C464.707 239.631 465.126 237.622 465.962 235.88C466.809 234.129 467.986 232.762 469.494 231.779C471.012 230.787 472.783 230.291 474.807 230.291C476.383 230.291 477.804 230.582 479.068 231.166C480.333 231.75 481.37 232.567 482.177 233.618C482.985 234.669 483.486 235.895 483.68 237.296H480.236C479.973 236.274 479.39 235.37 478.485 234.581C477.59 233.784 476.383 233.385 474.865 233.385C473.522 233.385 472.345 233.735 471.333 234.435C470.331 235.126 469.548 236.104 468.983 237.369C468.429 238.624 468.152 240.098 468.152 241.791C468.152 243.523 468.424 245.031 468.969 246.316C469.523 247.6 470.302 248.597 471.304 249.308C472.316 250.018 473.503 250.373 474.865 250.373C475.76 250.373 476.573 250.217 477.302 249.906C478.032 249.595 478.65 249.147 479.156 248.563C479.662 247.979 480.022 247.279 480.236 246.462H483.68C483.486 247.785 483.004 248.977 482.236 250.037C481.477 251.088 480.47 251.925 479.214 252.548C477.969 253.161 476.519 253.467 474.865 253.467ZM492.16 247.921L502.96 230.582H506.93V253H503.486V235.661L492.744 253H488.716V230.582H492.16V247.921ZM516.683 247.921L527.483 230.582H531.453V253H528.008V235.661L517.267 253H513.238V230.582H516.683V247.921ZM135.824 303V280.582H144.989C147.402 280.582 149.319 281.127 150.74 282.217C152.16 283.307 152.87 284.747 152.87 286.537C152.87 287.899 152.467 288.955 151.659 289.704C150.852 290.444 149.815 290.945 148.55 291.207C149.377 291.324 150.18 291.616 150.959 292.083C151.747 292.55 152.399 293.192 152.914 294.01C153.43 294.817 153.688 295.81 153.688 296.987C153.688 298.135 153.396 299.162 152.812 300.066C152.228 300.971 151.392 301.686 150.302 302.212C149.212 302.737 147.908 303 146.39 303H135.824ZM139.093 299.848H146.39C147.577 299.848 148.507 299.565 149.178 299.001C149.849 298.437 150.185 297.668 150.185 296.695C150.185 295.537 149.849 294.627 149.178 293.966C148.507 293.294 147.577 292.959 146.39 292.959H139.093V299.848ZM139.093 289.981H144.989C145.914 289.981 146.707 289.855 147.368 289.602C148.03 289.339 148.536 288.97 148.886 288.493C149.246 288.006 149.426 287.432 149.426 286.771C149.426 285.827 149.032 285.087 148.244 284.552C147.456 284.007 146.371 283.735 144.989 283.735H139.093V289.981ZM187.099 272.176L188.85 274.278C188.169 274.939 187.381 275.401 186.486 275.664C185.591 275.927 184.579 276.087 183.45 276.146C182.321 276.204 181.066 276.262 179.685 276.321C178.128 276.379 176.839 276.759 175.817 277.459C174.795 278.16 174.007 279.172 173.453 280.495C172.898 281.818 172.543 283.443 172.387 285.37H172.679C173.438 283.968 174.489 282.937 175.832 282.275C177.174 281.614 178.614 281.283 180.152 281.283C181.903 281.283 183.479 281.692 184.88 282.509C186.282 283.326 187.391 284.538 188.208 286.143C189.025 287.748 189.434 289.729 189.434 292.083C189.434 294.428 189.016 296.452 188.179 298.155C187.352 299.857 186.189 301.171 184.691 302.095C183.202 303.01 181.456 303.467 179.451 303.467C177.447 303.467 175.691 302.995 174.182 302.051C172.674 301.098 171.502 299.687 170.665 297.819C169.828 295.941 169.41 293.62 169.41 290.857V288.464C169.41 283.472 170.256 279.687 171.949 277.109C173.652 274.531 176.211 273.198 179.626 273.11C180.833 273.071 181.908 273.061 182.852 273.081C183.796 273.1 184.618 273.056 185.318 272.949C186.019 272.842 186.612 272.585 187.099 272.176ZM179.451 300.373C180.804 300.373 181.966 300.032 182.939 299.351C183.922 298.67 184.676 297.712 185.202 296.476C185.727 295.231 185.99 293.766 185.99 292.083C185.99 290.449 185.722 289.057 185.187 287.909C184.662 286.761 183.907 285.885 182.925 285.282C181.942 284.679 180.765 284.377 179.393 284.377C178.391 284.377 177.491 284.547 176.693 284.888C175.895 285.228 175.214 285.73 174.65 286.391C174.085 287.053 173.647 287.86 173.336 288.814C173.034 289.767 172.874 290.857 172.854 292.083C172.854 294.593 173.443 296.603 174.62 298.111C175.798 299.619 177.408 300.373 179.451 300.373ZM192.718 303V299.789H193.535C194.206 299.789 194.766 299.658 195.213 299.395C195.661 299.123 196.021 298.651 196.294 297.979C196.576 297.298 196.79 296.355 196.936 295.148C197.091 293.932 197.203 292.385 197.271 290.507L197.68 280.582H212.625V303H209.181V283.793H200.949L200.599 291.791C200.521 293.63 200.356 295.25 200.103 296.651C199.859 298.043 199.485 299.21 198.979 300.154C198.483 301.098 197.821 301.808 196.994 302.285C196.167 302.762 195.131 303 193.885 303H192.718ZM222.389 297.921L233.189 280.582H237.159V303H233.714V285.661L222.973 303H218.945V280.582H222.389V297.921ZM242.066 303L251.173 291.616L242.183 280.582H246.27L253.742 290.157H255.61V280.582H259.055V290.157H260.864L268.337 280.582H272.423L263.491 291.616L272.54 303H268.395L260.806 293.367H259.055V303H255.61V293.367H253.859L246.211 303H242.066ZM284.059 303.525C282.638 303.525 281.349 303.258 280.191 302.723C279.034 302.178 278.114 301.395 277.433 300.373C276.752 299.342 276.411 298.096 276.411 296.637C276.411 295.352 276.664 294.311 277.17 293.513C277.676 292.706 278.352 292.073 279.199 291.616C280.045 291.159 280.98 290.818 282.001 290.594C283.032 290.361 284.069 290.176 285.11 290.04C286.472 289.865 287.576 289.733 288.423 289.646C289.279 289.549 289.902 289.388 290.291 289.164C290.69 288.94 290.889 288.551 290.889 287.997V287.88C290.889 286.44 290.495 285.321 289.707 284.523C288.929 283.725 287.747 283.326 286.161 283.326C284.516 283.326 283.227 283.686 282.293 284.406C281.359 285.126 280.702 285.895 280.323 286.712L277.054 285.545C277.637 284.183 278.416 283.122 279.389 282.363C280.371 281.594 281.442 281.059 282.6 280.758C283.767 280.446 284.915 280.291 286.044 280.291C286.764 280.291 287.591 280.378 288.525 280.553C289.469 280.719 290.379 281.064 291.254 281.59C292.14 282.115 292.874 282.908 293.458 283.968C294.042 285.029 294.334 286.45 294.334 288.23V303H290.889V299.964H290.714C290.481 300.451 290.091 300.971 289.547 301.526C289.002 302.081 288.277 302.552 287.372 302.942C286.467 303.331 285.363 303.525 284.059 303.525ZM284.584 300.431C285.947 300.431 287.095 300.164 288.029 299.629C288.973 299.093 289.683 298.403 290.16 297.556C290.646 296.71 290.889 295.819 290.889 294.885V291.733C290.743 291.908 290.422 292.069 289.926 292.214C289.44 292.351 288.875 292.472 288.233 292.579C287.601 292.677 286.983 292.764 286.38 292.842C285.786 292.91 285.304 292.969 284.935 293.017C284.04 293.134 283.203 293.324 282.424 293.586C281.656 293.839 281.033 294.224 280.556 294.739C280.089 295.245 279.856 295.936 279.856 296.812C279.856 298.009 280.298 298.913 281.184 299.526C282.079 300.13 283.213 300.431 284.584 300.431ZM304.065 297.921L314.865 280.582H318.835V303H315.39V285.661L304.649 303H300.62V280.582H304.065V297.921ZM312.588 273.11H315.799C315.799 274.686 315.254 275.975 314.164 276.978C313.075 277.98 311.596 278.481 309.727 278.481C307.889 278.481 306.424 277.98 305.334 276.978C304.254 275.975 303.714 274.686 303.714 273.11H306.925C306.925 273.869 307.134 274.535 307.553 275.109C307.981 275.684 308.706 275.971 309.727 275.971C310.749 275.971 311.479 275.684 311.917 275.109C312.364 274.535 312.588 273.869 312.588 273.11ZM325.143 280.582H328.588V299.789H337.053V280.582H340.497V299.789H348.962V280.582H352.406V303H325.143V280.582ZM368.096 303.467C365.936 303.467 364.072 302.99 362.506 302.037C360.949 301.073 359.747 299.731 358.901 298.009C358.064 296.277 357.646 294.263 357.646 291.966C357.646 289.67 358.064 287.646 358.901 285.895C359.747 284.134 360.925 282.762 362.433 281.779C363.951 280.787 365.721 280.291 367.745 280.291C368.913 280.291 370.066 280.485 371.204 280.874C372.343 281.264 373.379 281.896 374.313 282.772C375.247 283.638 375.991 284.786 376.546 286.216C377.101 287.646 377.378 289.407 377.378 291.499V292.959H360.098V289.981H373.875C373.875 288.717 373.622 287.588 373.116 286.596C372.62 285.603 371.91 284.82 370.985 284.246C370.071 283.672 368.991 283.385 367.745 283.385C366.373 283.385 365.186 283.725 364.184 284.406C363.192 285.078 362.428 285.953 361.893 287.033C361.358 288.113 361.09 289.271 361.09 290.507V292.492C361.09 294.185 361.382 295.62 361.966 296.797C362.559 297.965 363.381 298.855 364.432 299.468C365.483 300.071 366.704 300.373 368.096 300.373C369 300.373 369.818 300.246 370.547 299.993C371.287 299.731 371.924 299.342 372.459 298.826C372.995 298.3 373.408 297.649 373.7 296.87L377.028 297.804C376.677 298.933 376.089 299.925 375.262 300.782C374.435 301.628 373.413 302.29 372.197 302.766C370.98 303.234 369.613 303.467 368.096 303.467ZM392.016 303.467C389.856 303.467 387.993 302.99 386.427 302.037C384.87 301.073 383.668 299.731 382.822 298.009C381.985 296.277 381.566 294.263 381.566 291.966C381.566 289.67 381.985 287.646 382.822 285.895C383.668 284.134 384.845 282.762 386.354 281.779C387.871 280.787 389.642 280.291 391.666 280.291C392.834 280.291 393.987 280.485 395.125 280.874C396.263 281.264 397.3 281.896 398.234 282.772C399.168 283.638 399.912 284.786 400.467 286.216C401.021 287.646 401.299 289.407 401.299 291.499V292.959H384.018V289.981H397.796C397.796 288.717 397.543 287.588 397.037 286.596C396.541 285.603 395.83 284.82 394.906 284.246C393.991 283.672 392.911 283.385 391.666 283.385C390.294 283.385 389.107 283.725 388.105 284.406C387.112 285.078 386.349 285.953 385.814 287.033C385.278 288.113 385.011 289.271 385.011 290.507V292.492C385.011 294.185 385.303 295.62 385.887 296.797C386.48 297.965 387.302 298.855 388.353 299.468C389.404 300.071 390.625 300.373 392.016 300.373C392.921 300.373 393.739 300.246 394.468 299.993C395.208 299.731 395.845 299.342 396.38 298.826C396.915 298.3 397.329 297.649 397.621 296.87L400.948 297.804C400.598 298.933 400.009 299.925 399.182 300.782C398.355 301.628 397.334 302.29 396.117 302.766C394.901 303.234 393.534 303.467 392.016 303.467ZM418.097 303V280.582H427.263C429.676 280.582 431.592 281.127 433.013 282.217C434.433 283.307 435.144 284.747 435.144 286.537C435.144 287.899 434.74 288.955 433.932 289.704C433.125 290.444 432.089 290.945 430.824 291.207C431.651 291.324 432.453 291.616 433.232 292.083C434.02 292.55 434.672 293.192 435.188 294.01C435.703 294.817 435.961 295.81 435.961 296.987C435.961 298.135 435.669 299.162 435.085 300.066C434.502 300.971 433.665 301.686 432.575 302.212C431.485 302.737 430.182 303 428.664 303H418.097ZM421.366 299.848H428.664C429.851 299.848 430.78 299.565 431.451 299.001C432.123 298.437 432.458 297.668 432.458 296.695C432.458 295.537 432.123 294.627 431.451 293.966C430.78 293.294 429.851 292.959 428.664 292.959H421.366V299.848ZM421.366 289.981H427.263C428.187 289.981 428.98 289.855 429.642 289.602C430.303 289.339 430.809 288.97 431.159 288.493C431.519 288.006 431.699 287.432 431.699 286.771C431.699 285.827 431.305 285.087 430.517 284.552C429.729 284.007 428.644 283.735 427.263 283.735H421.366V289.981ZM441.175 311.407V280.582H444.503V284.144H444.911C445.164 283.754 445.515 283.258 445.962 282.655C446.419 282.042 447.071 281.497 447.918 281.02C448.774 280.534 449.932 280.291 451.391 280.291C453.279 280.291 454.943 280.762 456.383 281.706C457.823 282.65 458.947 283.988 459.754 285.72C460.562 287.452 460.966 289.495 460.966 291.85C460.966 294.224 460.562 296.282 459.754 298.023C458.947 299.755 457.828 301.098 456.397 302.051C454.967 302.995 453.318 303.467 451.45 303.467C450.01 303.467 448.857 303.229 447.991 302.752C447.125 302.265 446.458 301.716 445.991 301.103C445.524 300.48 445.164 299.964 444.911 299.556H444.619V311.407H441.175ZM444.561 291.791C444.561 293.484 444.809 294.978 445.305 296.272C445.802 297.556 446.526 298.563 447.48 299.293C448.434 300.013 449.601 300.373 450.983 300.373C452.423 300.373 453.624 299.993 454.588 299.235C455.561 298.466 456.29 297.435 456.777 296.14C457.273 294.837 457.521 293.387 457.521 291.791C457.521 290.215 457.278 288.794 456.791 287.53C456.315 286.255 455.59 285.248 454.617 284.508C453.654 283.759 452.442 283.385 450.983 283.385C449.582 283.385 448.404 283.74 447.451 284.45C446.497 285.151 445.777 286.133 445.291 287.398C444.804 288.653 444.561 290.118 444.561 291.791ZM475.619 303.467C473.459 303.467 471.595 302.99 470.029 302.037C468.472 301.073 467.27 299.731 466.424 298.009C465.587 296.277 465.169 294.263 465.169 291.966C465.169 289.67 465.587 287.646 466.424 285.895C467.27 284.134 468.448 282.762 469.956 281.779C471.474 280.787 473.245 280.291 475.268 280.291C476.436 280.291 477.589 280.485 478.727 280.874C479.866 281.264 480.902 281.896 481.836 282.772C482.77 283.638 483.514 284.786 484.069 286.216C484.624 287.646 484.901 289.407 484.901 291.499V292.959H467.621V289.981H481.398C481.398 288.717 481.145 287.588 480.639 286.596C480.143 285.603 479.433 284.82 478.508 284.246C477.594 283.672 476.514 283.385 475.268 283.385C473.896 283.385 472.709 283.725 471.707 284.406C470.715 285.078 469.951 285.953 469.416 287.033C468.881 288.113 468.613 289.271 468.613 290.507V292.492C468.613 294.185 468.905 295.62 469.489 296.797C470.082 297.965 470.905 298.855 471.955 299.468C473.006 300.071 474.227 300.373 475.619 300.373C476.523 300.373 477.341 300.246 478.071 299.993C478.81 299.731 479.447 299.342 479.982 298.826C480.518 298.3 480.931 297.649 481.223 296.87L484.551 297.804C484.2 298.933 483.612 299.925 482.785 300.782C481.958 301.628 480.936 302.29 479.72 302.766C478.504 303.234 477.136 303.467 475.619 303.467ZM502.4 298.33L510.223 280.582H513.492L503.801 303H500.999L491.483 280.582H494.694L502.4 298.33ZM493.585 280.582V303H490.14V280.582H493.585ZM511.215 303V280.582H514.66V303H511.215ZM534.45 303V283.735H528.495C527.153 283.735 526.097 284.046 525.328 284.669C524.56 285.292 524.175 286.148 524.175 287.238C524.175 288.308 524.521 289.15 525.212 289.763C525.912 290.376 526.871 290.682 528.087 290.682H535.326V293.893H528.087C526.569 293.893 525.26 293.625 524.161 293.09C523.061 292.555 522.215 291.791 521.621 290.799C521.028 289.797 520.731 288.61 520.731 287.238C520.731 285.856 521.042 284.669 521.665 283.677C522.288 282.684 523.178 281.92 524.336 281.385C525.504 280.85 526.89 280.582 528.495 280.582H537.719V303H534.45ZM519.505 303L525.868 291.85H529.605L523.241 303H519.505ZM548.596 273.11L548.304 294.593H544.918L544.626 273.11H548.596ZM546.611 303.234C545.891 303.234 545.273 302.976 544.758 302.46C544.242 301.944 543.984 301.326 543.984 300.606C543.984 299.886 544.242 299.269 544.758 298.753C545.273 298.237 545.891 297.979 546.611 297.979C547.331 297.979 547.949 298.237 548.465 298.753C548.98 299.269 549.238 299.886 549.238 300.606C549.238 301.083 549.117 301.521 548.873 301.92C548.64 302.319 548.324 302.64 547.925 302.883C547.535 303.117 547.098 303.234 546.611 303.234Z" fill="black"/>
</svg>
