<svg width="685" height="476" viewBox="0 0 685 476" fill="none" xmlns="http://www.w3.org/2000/svg">
<rect width="685" height="476" rx="20" fill="#CBD9E1"/>
<g clip-path="url(#clip0_2078_128)">
<path d="M334.392 257.8C337.095 247.14 335.091 239.905 328.068 235.48C326.227 234.319 324.071 233.445 321.942 233.005C319.808 232.566 317.471 232.506 315.328 232.884C313.185 233.262 311.033 234.156 309.134 235.258C307.242 236.353 305.662 237.986 303.816 239.484C299.904 237.142 295.83 234.701 291.755 232.261C291.41 232.054 291.084 231.818 290.662 231.536L298.822 217.911C303.44 219.842 308.129 220.05 312.839 218.142C316.438 216.682 319.293 214.287 321.312 210.962C323.672 207.077 324.451 202.857 323.632 198.394C322.814 193.94 320.513 190.355 316.98 187.524L326.109 172.28C331.037 174.297 336 174.447 340.929 172.178C344.459 170.552 347.163 168.005 349.081 164.624C353.218 157.319 351.737 150.054 344.393 141.8L353.404 126.754C362.925 129.968 371.161 128.031 376.264 118.969C381.064 110.44 378.768 102.617 371.7 96.1564L379.778 82.668L393.302 90.7671C391.348 95.4127 391.114 100.121 392.987 104.834C394.42 108.437 396.792 111.287 400.092 113.288C403.95 115.632 408.151 116.387 412.606 115.534C417.05 114.686 420.638 112.355 423.481 108.792L438.445 117.754C438.008 119.683 437.42 121.542 437.185 123.443C436.274 130.829 440.447 138.403 446.887 141.273C454.447 144.643 462.69 142.942 467.905 136.906C468.455 136.268 468.864 135.852 469.78 136.413C474.434 139.258 479.128 142.041 483.856 144.872C480.562 154.538 482.444 162.791 491.441 167.853C499.912 172.616 507.723 170.264 514.204 163.13L527.597 171.151L519.442 184.767C514.823 182.832 510.13 182.629 505.424 184.539C501.824 186 498.97 188.395 496.953 191.721C494.593 195.606 493.817 199.828 494.637 204.291C495.454 208.744 497.756 212.33 501.291 215.158L492.178 230.374C491.069 230.012 489.986 229.578 488.861 229.306C481.109 227.428 472.74 231.26 469.004 238.368C465.22 245.571 466.879 254.6 472.993 259.906C473.625 260.454 474.034 260.86 473.473 261.785C470.608 266.471 467.805 271.199 464.954 275.96C455.339 272.718 447.103 274.655 442 283.718C437.2 292.246 439.496 300.069 446.566 306.527L438.487 320.015L424.967 311.918C426.922 307.269 427.156 302.561 425.282 297.851C423.849 294.248 421.48 291.399 418.177 289.397C414.319 287.053 410.118 286.297 405.663 287.151C401.222 288 397.631 290.33 394.787 293.893L379.823 284.931C380.26 283.002 380.848 281.143 381.084 279.242C381.993 271.859 377.827 264.293 371.385 261.414C363.837 258.043 355.572 259.747 350.367 265.781C349.817 266.418 349.41 266.836 348.491 266.273C343.838 263.429 339.143 260.646 334.401 257.806L334.392 257.8Z" fill="#88BCE5"/>
</g>
<g clip-path="url(#clip1_2078_128)">
<path d="M208.511 263.839C205.353 253.304 199.916 248.127 191.618 247.939C189.442 247.889 187.142 248.248 185.09 248.964C183.034 249.684 180.999 250.832 179.354 252.258C177.71 253.683 176.323 255.556 175.259 257.477C174.2 259.389 173.682 261.601 172.869 263.835C168.309 263.835 163.559 263.835 158.81 263.835C158.408 263.835 158.007 263.8 157.5 263.775V247.893C162.454 247.177 166.584 244.946 169.644 240.89C171.981 237.787 173.2 234.266 173.224 230.376C173.253 225.83 171.753 221.809 168.756 218.402C165.767 215.001 161.95 213.108 157.465 212.494V194.726C162.729 193.925 167.063 191.503 170.126 187.024C172.319 183.815 173.33 180.241 173.238 176.355C173.034 167.962 168.031 162.49 157.489 159.182V141.644C167.309 139.51 173.379 133.616 173.101 123.22C172.837 113.437 166.848 107.905 157.465 105.994V90.2716H173.228C173.939 95.2607 176.157 99.42 180.185 102.501C183.266 104.856 186.766 106.083 190.625 106.104C195.138 106.132 199.131 104.622 202.515 101.601C205.891 98.5902 207.771 94.7465 208.381 90.2291H225.823C226.439 92.1084 226.89 94.0054 227.665 95.7571C230.678 102.562 238.15 106.916 245.149 106.068C253.367 105.076 259.564 99.381 260.937 91.5233C261.082 90.6936 261.219 90.1262 262.293 90.1369C267.747 90.1865 273.204 90.1617 278.714 90.1617C280.855 100.147 286.71 106.26 297.03 105.98C306.744 105.714 312.237 99.6824 314.131 90.2326H329.743V106.104C324.785 106.817 320.655 109.054 317.599 113.111C315.261 116.213 314.043 119.734 314.022 123.624C313.994 128.17 315.497 132.191 318.493 135.599C321.483 138.999 325.299 140.893 329.785 141.502V159.239C328.648 159.498 327.496 159.682 326.391 160.026C318.775 162.398 313.564 169.986 314.011 178.004C314.465 186.127 320.528 193.02 328.5 194.432C329.324 194.577 329.884 194.715 329.877 195.797C329.827 201.289 329.852 206.786 329.852 212.335C319.937 214.494 313.867 220.388 314.145 230.784C314.409 240.567 320.398 246.099 329.781 248.006V263.729H314.022C313.311 258.736 311.092 254.577 307.065 251.499C303.984 249.145 300.488 247.918 296.625 247.896C292.111 247.868 288.119 249.379 284.735 252.4C281.362 255.41 279.478 259.254 278.869 263.771H261.427C260.81 261.892 260.36 259.995 259.585 258.243C256.571 251.442 249.11 247.092 242.104 247.932C233.897 248.918 227.682 254.627 226.316 262.477C226.172 263.307 226.038 263.874 224.961 263.864C219.507 263.814 214.049 263.839 208.521 263.839H208.511Z" fill="white"/>
</g>
<path d="M137.385 381.467C135.284 381.467 133.474 380.971 131.956 379.978C130.438 378.986 129.271 377.619 128.454 375.877C127.636 374.136 127.228 372.146 127.228 369.908C127.228 367.631 127.646 365.622 128.483 363.88C129.329 362.129 130.506 360.762 132.015 359.779C133.532 358.787 135.303 358.291 137.327 358.291C138.903 358.291 140.324 358.582 141.589 359.166C142.854 359.75 143.89 360.567 144.697 361.618C145.505 362.669 146.006 363.895 146.201 365.296H142.756C142.494 364.274 141.91 363.37 141.005 362.581C140.11 361.784 138.903 361.385 137.385 361.385C136.043 361.385 134.865 361.735 133.854 362.435C132.851 363.126 132.068 364.104 131.504 365.369C130.949 366.624 130.672 368.098 130.672 369.791C130.672 371.523 130.944 373.031 131.489 374.316C132.044 375.6 132.822 376.597 133.824 377.308C134.836 378.018 136.023 378.373 137.385 378.373C138.281 378.373 139.093 378.217 139.823 377.906C140.553 377.595 141.17 377.147 141.676 376.563C142.182 375.979 142.542 375.279 142.756 374.462H146.201C146.006 375.785 145.524 376.977 144.756 378.037C143.997 379.088 142.99 379.925 141.735 380.548C140.489 381.161 139.04 381.467 137.385 381.467ZM151.236 381V358.582H168.866V381H165.422V361.793H154.68V381H151.236ZM181.754 381.525C180.333 381.525 179.044 381.258 177.886 380.723C176.728 380.178 175.809 379.395 175.127 378.373C174.446 377.342 174.106 376.096 174.106 374.637C174.106 373.352 174.359 372.311 174.865 371.513C175.371 370.706 176.047 370.073 176.893 369.616C177.74 369.159 178.674 368.818 179.696 368.594C180.727 368.361 181.763 368.176 182.804 368.04C184.166 367.865 185.271 367.733 186.117 367.646C186.974 367.549 187.596 367.388 187.985 367.164C188.384 366.94 188.584 366.551 188.584 365.997V365.88C188.584 364.44 188.19 363.321 187.402 362.523C186.623 361.725 185.441 361.326 183.855 361.326C182.211 361.326 180.922 361.686 179.988 362.406C179.053 363.126 178.397 363.895 178.017 364.712L174.748 363.545C175.332 362.183 176.11 361.122 177.083 360.363C178.066 359.594 179.136 359.059 180.294 358.758C181.462 358.446 182.61 358.291 183.738 358.291C184.458 358.291 185.285 358.378 186.219 358.553C187.163 358.719 188.073 359.064 188.949 359.59C189.834 360.115 190.569 360.908 191.153 361.968C191.736 363.029 192.028 364.45 192.028 366.23V381H188.584V377.964H188.409C188.175 378.451 187.786 378.971 187.241 379.526C186.696 380.081 185.971 380.552 185.067 380.942C184.162 381.331 183.057 381.525 181.754 381.525ZM182.279 378.431C183.641 378.431 184.789 378.164 185.723 377.629C186.667 377.093 187.377 376.403 187.854 375.556C188.341 374.71 188.584 373.819 188.584 372.885V369.733C188.438 369.908 188.117 370.069 187.621 370.214C187.134 370.351 186.57 370.472 185.928 370.579C185.295 370.677 184.677 370.764 184.074 370.842C183.481 370.91 182.999 370.969 182.629 371.017C181.734 371.134 180.897 371.324 180.119 371.586C179.35 371.839 178.728 372.224 178.251 372.739C177.784 373.245 177.55 373.936 177.55 374.812C177.55 376.009 177.993 376.913 178.878 377.526C179.773 378.13 180.907 378.431 182.279 378.431ZM207.422 381.467C205.32 381.467 203.511 380.971 201.993 379.978C200.475 378.986 199.307 377.619 198.49 375.877C197.673 374.136 197.264 372.146 197.264 369.908C197.264 367.631 197.682 365.622 198.519 363.88C199.366 362.129 200.543 360.762 202.051 359.779C203.569 358.787 205.34 358.291 207.364 358.291C208.94 358.291 210.36 358.582 211.625 359.166C212.89 359.75 213.926 360.567 214.734 361.618C215.542 362.669 216.043 363.895 216.237 365.296H212.793C212.53 364.274 211.946 363.37 211.042 362.581C210.146 361.784 208.94 361.385 207.422 361.385C206.079 361.385 204.902 361.735 203.89 362.435C202.888 363.126 202.105 364.104 201.54 365.369C200.986 366.624 200.708 368.098 200.708 369.791C200.708 371.523 200.981 373.031 201.526 374.316C202.08 375.6 202.859 376.597 203.861 377.308C204.873 378.018 206.06 378.373 207.422 378.373C208.317 378.373 209.13 378.217 209.859 377.906C210.589 377.595 211.207 377.147 211.713 376.563C212.219 375.979 212.579 375.279 212.793 374.462H216.237C216.043 375.785 215.561 376.977 214.792 378.037C214.033 379.088 213.026 379.925 211.771 380.548C210.526 381.161 209.076 381.467 207.422 381.467ZM224.717 375.921L235.517 358.582H239.487V381H236.042V363.661L225.301 381H221.272V358.582H224.717V375.921ZM262.433 350.176L264.185 352.278C263.504 352.939 262.715 353.401 261.82 353.664C260.925 353.927 259.913 354.087 258.785 354.146C257.656 354.204 256.401 354.262 255.019 354.321C253.462 354.379 252.173 354.759 251.152 355.459C250.13 356.16 249.342 357.172 248.787 358.495C248.233 359.818 247.877 361.443 247.722 363.37H248.014C248.773 361.968 249.823 360.937 251.166 360.275C252.509 359.614 253.949 359.283 255.486 359.283C257.238 359.283 258.814 359.692 260.215 360.509C261.616 361.326 262.725 362.538 263.542 364.143C264.36 365.748 264.768 367.729 264.768 370.083C264.768 372.428 264.35 374.452 263.513 376.155C262.686 377.857 261.524 379.171 260.025 380.095C258.536 381.01 256.79 381.467 254.786 381.467C252.781 381.467 251.025 380.995 249.517 380.051C248.009 379.098 246.836 377.687 246 375.819C245.163 373.941 244.744 371.62 244.744 368.857V366.464C244.744 361.472 245.591 357.687 247.284 355.109C248.987 352.531 251.546 351.198 254.961 351.11C256.167 351.071 257.242 351.061 258.186 351.081C259.13 351.1 259.952 351.056 260.653 350.949C261.353 350.842 261.947 350.585 262.433 350.176ZM254.786 378.373C256.138 378.373 257.301 378.032 258.274 377.351C259.256 376.67 260.011 375.712 260.536 374.476C261.061 373.231 261.324 371.766 261.324 370.083C261.324 368.449 261.056 367.057 260.521 365.909C259.996 364.761 259.242 363.885 258.259 363.282C257.276 362.679 256.099 362.377 254.727 362.377C253.725 362.377 252.825 362.547 252.027 362.888C251.229 363.228 250.548 363.73 249.984 364.391C249.42 365.053 248.982 365.86 248.67 366.814C248.369 367.767 248.208 368.857 248.189 370.083C248.189 372.593 248.777 374.603 249.955 376.111C251.132 377.619 252.742 378.373 254.786 378.373ZM279.144 381.467C277.12 381.467 275.345 380.985 273.817 380.022C272.299 379.059 271.112 377.711 270.256 375.979C269.41 374.247 268.986 372.224 268.986 369.908C268.986 367.573 269.41 365.534 270.256 363.793C271.112 362.051 272.299 360.699 273.817 359.735C275.345 358.772 277.12 358.291 279.144 358.291C281.168 358.291 282.939 358.772 284.457 359.735C285.984 360.699 287.171 362.051 288.018 363.793C288.874 365.534 289.302 367.573 289.302 369.908C289.302 372.224 288.874 374.247 288.018 375.979C287.171 377.711 285.984 379.059 284.457 380.022C282.939 380.985 281.168 381.467 279.144 381.467ZM279.144 378.373C280.682 378.373 281.946 377.979 282.939 377.191C283.931 376.403 284.666 375.366 285.143 374.082C285.619 372.798 285.858 371.406 285.858 369.908C285.858 368.41 285.619 367.013 285.143 365.719C284.666 364.425 283.931 363.379 282.939 362.581C281.946 361.784 280.682 361.385 279.144 361.385C277.607 361.385 276.342 361.784 275.35 362.581C274.357 363.379 273.623 364.425 273.146 365.719C272.669 367.013 272.431 368.41 272.431 369.908C272.431 371.406 272.669 372.798 273.146 374.082C273.623 375.366 274.357 376.403 275.35 377.191C276.342 377.979 277.607 378.373 279.144 378.373ZM304.718 375.279H308.396C308.474 376.291 308.931 377.059 309.768 377.585C310.614 378.11 311.714 378.373 313.066 378.373C314.448 378.373 315.63 378.091 316.613 377.526C317.595 376.952 318.087 376.028 318.087 374.753C318.087 374.004 317.902 373.352 317.532 372.798C317.162 372.233 316.642 371.796 315.97 371.484C315.299 371.173 314.506 371.017 313.591 371.017H309.738V367.923H313.591C314.963 367.923 315.975 367.612 316.627 366.989C317.289 366.366 317.62 365.588 317.62 364.654C317.62 363.652 317.264 362.849 316.554 362.246C315.844 361.633 314.837 361.326 313.533 361.326C312.22 361.326 311.125 361.623 310.249 362.217C309.374 362.8 308.911 363.554 308.863 364.479H305.243C305.282 363.272 305.652 362.207 306.352 361.283C307.053 360.348 308.007 359.619 309.213 359.093C310.42 358.558 311.801 358.291 313.358 358.291C314.934 358.291 316.301 358.568 317.459 359.122C318.627 359.667 319.527 360.412 320.159 361.355C320.801 362.29 321.122 363.35 321.122 364.537C321.122 365.802 320.767 366.824 320.057 367.602C319.347 368.38 318.456 368.935 317.386 369.266V369.499C318.233 369.558 318.967 369.83 319.59 370.317C320.222 370.793 320.714 371.421 321.064 372.199C321.414 372.968 321.589 373.819 321.589 374.753C321.589 376.116 321.225 377.303 320.495 378.315C319.765 379.317 318.763 380.095 317.488 380.65C316.214 381.195 314.759 381.467 313.124 381.467C311.538 381.467 310.118 381.209 308.863 380.694C307.608 380.168 306.61 379.443 305.871 378.519C305.141 377.585 304.757 376.505 304.718 375.279ZM333.024 381.525C331.604 381.525 330.315 381.258 329.157 380.723C327.999 380.178 327.079 379.395 326.398 378.373C325.717 377.342 325.377 376.096 325.377 374.637C325.377 373.352 325.63 372.311 326.136 371.513C326.642 370.706 327.318 370.073 328.164 369.616C329.011 369.159 329.945 368.818 330.967 368.594C331.998 368.361 333.034 368.176 334.075 368.04C335.437 367.865 336.542 367.733 337.388 367.646C338.244 367.549 338.867 367.388 339.256 367.164C339.655 366.94 339.855 366.551 339.855 365.997V365.88C339.855 364.44 339.461 363.321 338.673 362.523C337.894 361.725 336.712 361.326 335.126 361.326C333.482 361.326 332.192 361.686 331.258 362.406C330.324 363.126 329.668 363.895 329.288 364.712L326.019 363.545C326.603 362.183 327.381 361.122 328.354 360.363C329.337 359.594 330.407 359.059 331.565 358.758C332.732 358.446 333.881 358.291 335.009 358.291C335.729 358.291 336.556 358.378 337.49 358.553C338.434 358.719 339.344 359.064 340.22 359.59C341.105 360.115 341.84 360.908 342.423 361.968C343.007 363.029 343.299 364.45 343.299 366.23V381H339.855V377.964H339.68C339.446 378.451 339.057 378.971 338.512 379.526C337.967 380.081 337.242 380.552 336.337 380.942C335.433 381.331 334.328 381.525 333.024 381.525ZM333.55 378.431C334.912 378.431 336.06 378.164 336.994 377.629C337.938 377.093 338.648 376.403 339.125 375.556C339.611 374.71 339.855 373.819 339.855 372.885V369.733C339.709 369.908 339.388 370.069 338.891 370.214C338.405 370.351 337.841 370.472 337.198 370.579C336.566 370.677 335.948 370.764 335.345 370.842C334.751 370.91 334.27 370.969 333.9 371.017C333.005 371.134 332.168 371.324 331.39 371.586C330.621 371.839 329.998 372.224 329.522 372.739C329.055 373.245 328.821 373.936 328.821 374.812C328.821 376.009 329.264 376.913 330.149 377.526C331.044 378.13 332.178 378.431 333.55 378.431ZM361.145 381V358.582H378.775V381H375.331V361.793H364.589V381H361.145ZM394.173 381.467C392.149 381.467 390.373 380.985 388.846 380.022C387.328 379.059 386.141 377.711 385.284 375.979C384.438 374.247 384.015 372.224 384.015 369.908C384.015 367.573 384.438 365.534 385.284 363.793C386.141 362.051 387.328 360.699 388.846 359.735C390.373 358.772 392.149 358.291 394.173 358.291C396.196 358.291 397.967 358.772 399.485 359.735C401.013 360.699 402.2 362.051 403.046 363.793C403.902 365.534 404.331 367.573 404.331 369.908C404.331 372.224 403.902 374.247 403.046 375.979C402.2 377.711 401.013 379.059 399.485 380.022C397.967 380.985 396.196 381.467 394.173 381.467ZM394.173 378.373C395.71 378.373 396.975 377.979 397.967 377.191C398.96 376.403 399.694 375.366 400.171 374.082C400.648 372.798 400.886 371.406 400.886 369.908C400.886 368.41 400.648 367.013 400.171 365.719C399.694 364.425 398.96 363.379 397.967 362.581C396.975 361.784 395.71 361.385 394.173 361.385C392.635 361.385 391.37 361.784 390.378 362.581C389.386 363.379 388.651 364.425 388.174 365.719C387.697 367.013 387.459 368.41 387.459 369.908C387.459 371.406 387.697 372.798 388.174 374.082C388.651 375.366 389.386 376.403 390.378 377.191C391.37 377.979 392.635 378.373 394.173 378.373ZM407.195 387.422V377.789H409.063C409.52 377.312 409.914 376.797 410.245 376.242C410.576 375.688 410.863 375.031 411.106 374.272C411.359 373.503 411.573 372.569 411.748 371.47C411.924 370.36 412.079 369.023 412.215 367.456L412.974 358.582H427.219V377.789H430.663V387.422H427.219V381H410.639V387.422H407.195ZM412.974 377.789H423.774V361.793H416.185L415.601 367.456C415.358 369.801 415.057 371.849 414.697 373.6C414.337 375.352 413.762 376.748 412.974 377.789ZM435.235 381V358.582H452.865V381H449.421V361.793H438.679V381H435.235ZM462.6 375.921L473.4 358.582H477.37V381H473.926V363.661L463.184 381H459.156V358.582H462.6V375.921ZM492.786 381.467C490.684 381.467 488.874 380.971 487.356 379.978C485.839 378.986 484.671 377.619 483.854 375.877C483.036 374.136 482.628 372.146 482.628 369.908C482.628 367.631 483.046 365.622 483.883 363.88C484.729 362.129 485.907 360.762 487.415 359.779C488.933 358.787 490.704 358.291 492.727 358.291C494.304 358.291 495.724 358.582 496.989 359.166C498.254 359.75 499.29 360.567 500.098 361.618C500.905 362.669 501.406 363.895 501.601 365.296H498.157C497.894 364.274 497.31 363.37 496.405 362.581C495.51 361.784 494.304 361.385 492.786 361.385C491.443 361.385 490.266 361.735 489.254 362.435C488.252 363.126 487.468 364.104 486.904 365.369C486.349 366.624 486.072 368.098 486.072 369.791C486.072 371.523 486.345 373.031 486.889 374.316C487.444 375.6 488.222 376.597 489.225 377.308C490.236 378.018 491.424 378.373 492.786 378.373C493.681 378.373 494.493 378.217 495.223 377.906C495.953 377.595 496.571 377.147 497.077 376.563C497.583 375.979 497.943 375.279 498.157 374.462H501.601C501.406 375.785 500.925 376.977 500.156 378.037C499.397 379.088 498.39 379.925 497.135 380.548C495.89 381.161 494.44 381.467 492.786 381.467ZM506.636 381V358.582H510.08V368.332H512.357L520.414 358.582H524.85L515.802 369.383L524.967 381H520.53L513.175 371.543H510.08V381H506.636ZM530.929 389.407C530.345 389.407 529.825 389.358 529.367 389.261C528.91 389.173 528.594 389.085 528.419 388.998L529.294 385.962C530.131 386.176 530.871 386.254 531.513 386.196C532.155 386.137 532.724 385.85 533.22 385.335C533.726 384.829 534.189 384.007 534.607 382.868L535.249 381.117L526.959 358.582H530.696L536.884 376.446H537.117L543.305 358.582H547.042L537.526 384.269C537.098 385.427 536.568 386.385 535.935 387.144C535.303 387.913 534.568 388.482 533.731 388.852C532.904 389.222 531.97 389.407 530.929 389.407ZM556.142 351.11L555.85 372.593H552.464L552.172 351.11H556.142ZM554.157 381.234C553.437 381.234 552.819 380.976 552.303 380.46C551.787 379.944 551.53 379.326 551.53 378.606C551.53 377.886 551.787 377.269 552.303 376.753C552.819 376.237 553.437 375.979 554.157 375.979C554.877 375.979 555.494 376.237 556.01 376.753C556.526 377.269 556.784 377.886 556.784 378.606C556.784 379.083 556.662 379.521 556.419 379.92C556.185 380.319 555.869 380.64 555.47 380.883C555.081 381.117 554.643 381.234 554.157 381.234Z" fill="black"/>
<defs>
<clipPath id="clip0_2078_128">
<rect width="173.229" height="174.457" fill="white" transform="translate(379.636 82) rotate(30.9174)"/>
</clipPath>
<clipPath id="clip1_2078_128">
<rect width="173.229" height="174.457" fill="white" transform="translate(157 89.7715)"/>
</clipPath>
</defs>
</svg>
