<svg width="2918" height="205" viewBox="0 0 2918 205" fill="none" xmlns="http://www.w3.org/2000/svg">
<g filter="url(#filter0_f_2067_577)">
<path d="M71.6147 185.72C68.3594 175.608 62.7561 170.639 54.2023 170.459C51.9595 170.411 49.5897 170.755 47.4739 171.443C45.3545 172.134 43.2569 173.236 41.5621 174.604C39.8673 175.973 38.4375 177.769 37.3415 179.614C36.2491 181.448 35.7156 183.572 34.8773 185.716C30.1776 185.716 25.282 185.716 20.3863 185.716C19.9726 185.716 19.5589 185.682 19.0363 185.658V170.415C24.1424 169.727 28.3994 167.587 31.5531 163.693C33.9628 160.715 35.2185 157.336 35.2439 153.602C35.2729 149.239 33.7269 145.38 30.6385 142.109C27.5574 138.845 23.6235 137.028 19 136.439V119.385C24.4255 118.616 28.8929 116.291 32.0503 111.993C34.3112 108.913 35.3527 105.482 35.2584 101.752C35.0479 93.6967 29.8909 88.4453 19.0254 85.27V68.4371C29.147 66.3883 35.4035 60.7319 35.1168 50.7533C34.8447 41.3635 28.6716 36.0543 19 34.2199V19.1295H35.2475C35.9806 23.918 38.2669 27.9101 42.4186 30.8676C45.5941 33.1274 49.2014 34.305 53.1789 34.3254C57.8314 34.3526 61.9468 32.9028 65.4344 30.0031C68.9147 27.1137 70.8526 23.4245 71.4804 19.0886H89.459C90.0941 20.8924 90.5586 22.7132 91.357 24.3944C94.4635 30.9255 102.165 35.1048 109.379 34.2914C117.849 33.3384 124.237 27.8727 125.652 20.3308C125.801 19.5345 125.942 18.9899 127.049 19.0001C132.671 19.0478 138.296 19.024 143.975 19.024C146.182 28.6078 152.217 34.4751 162.854 34.2063C172.867 33.951 178.528 28.1619 180.481 19.092H196.572V34.3254C191.462 35.0095 187.205 37.157 184.055 41.0504C181.645 44.0283 180.39 47.4078 180.368 51.1413C180.339 55.5044 181.889 59.3638 184.977 62.6344C188.058 65.8982 191.992 67.7156 196.616 68.301V85.3245C195.443 85.5729 194.257 85.7499 193.117 86.08C185.267 88.3569 179.896 95.64 180.357 103.335C180.825 111.132 187.075 117.748 195.291 119.103C196.14 119.242 196.717 119.375 196.71 120.413C196.659 125.685 196.684 130.96 196.684 136.286C186.465 138.359 180.208 144.015 180.495 153.994C180.767 163.384 186.94 168.693 196.612 170.524V185.614H180.368C179.635 180.822 177.349 176.83 173.197 173.876C170.021 171.616 166.418 170.439 162.437 170.418C157.784 170.391 153.669 171.841 150.181 174.741C146.704 177.63 144.763 181.319 144.135 185.655H126.156C125.521 183.851 125.057 182.03 124.258 180.349C121.152 173.822 113.462 169.646 106.24 170.452C97.7805 171.398 91.3752 176.878 89.9671 184.413C89.8183 185.209 89.6804 185.754 88.5699 185.744C82.9484 185.696 77.3233 185.72 71.6256 185.72H71.6147Z" fill="#B1DCFF"/>
</g>
<g filter="url(#filter1_f_2067_577)">
<path d="M252.989 185.72C249.733 175.608 244.13 170.639 235.576 170.459C233.334 170.411 230.964 170.755 228.848 171.443C226.729 172.134 224.631 173.236 222.936 174.604C221.241 175.973 219.811 177.769 218.716 179.614C217.623 181.448 217.09 183.572 216.251 185.716C211.552 185.716 206.656 185.716 201.76 185.716C201.347 185.716 200.933 185.682 200.41 185.658V170.415C205.516 169.727 209.773 167.587 212.927 163.693C215.337 160.715 216.592 157.336 216.618 153.602C216.647 149.239 215.101 145.38 212.013 142.109C208.931 138.845 204.997 137.028 200.374 136.439V119.385C205.8 118.616 210.267 116.291 213.424 111.993C215.685 108.913 216.727 105.482 216.632 101.752C216.422 93.6967 211.265 88.4453 200.399 85.27V68.4371C210.521 66.3883 216.778 60.7319 216.491 50.7533C216.219 41.3635 210.046 36.0543 200.374 34.2199V19.1295H216.622C217.355 23.918 219.641 27.9101 223.793 30.8676C226.968 33.1274 230.575 34.305 234.553 34.3254C239.205 34.3526 243.321 32.9028 246.808 30.0031C250.289 27.1137 252.227 23.4245 252.854 19.0886H270.833C271.468 20.8924 271.933 22.7132 272.731 24.3944C275.838 30.9255 283.539 35.1048 290.753 34.2914C299.224 33.3384 305.611 27.8727 307.026 20.3308C307.175 19.5345 307.316 18.9899 308.423 19.0001C314.045 19.0478 319.67 19.024 325.349 19.024C327.556 28.6078 333.591 34.4751 344.228 34.2063C354.241 33.951 359.902 28.1619 361.855 19.092H377.946V34.3254C372.836 35.0095 368.579 37.157 365.429 41.0504C363.019 44.0283 361.764 47.4078 361.742 51.1413C361.713 55.5044 363.263 59.3638 366.351 62.6344C369.432 65.8982 373.366 67.7156 377.99 68.301V85.3245C376.817 85.5729 375.631 85.7499 374.491 86.08C366.641 88.3569 361.27 95.64 361.731 103.335C362.199 111.132 368.449 117.748 376.665 119.103C377.514 119.242 378.091 119.375 378.084 120.413C378.033 125.685 378.058 130.96 378.058 136.286C367.839 138.359 361.582 144.015 361.869 153.994C362.141 163.384 368.314 168.693 377.986 170.524V185.614H361.742C361.009 180.822 358.723 176.83 354.571 173.876C351.395 171.616 347.792 170.439 343.811 170.418C339.158 170.391 335.043 171.841 331.555 174.741C328.078 177.63 326.137 181.319 325.509 185.655H307.531C306.895 183.851 306.431 182.03 305.632 180.349C302.526 173.822 294.836 169.646 287.614 170.452C279.155 171.398 272.749 176.878 271.341 184.413C271.192 185.209 271.054 185.754 269.944 185.744C264.322 185.696 258.697 185.72 253 185.72H252.989Z" fill="#B1DCFF"/>
</g>
<g filter="url(#filter2_f_2067_577)">
<path d="M430.699 185.72C427.443 175.608 421.84 170.639 413.286 170.459C411.043 170.411 408.674 170.755 406.558 171.443C404.439 172.134 402.341 173.236 400.646 174.604C398.951 175.973 397.521 177.769 396.425 179.614C395.333 181.448 394.8 183.572 393.961 185.716C389.262 185.716 384.366 185.716 379.47 185.716C379.057 185.716 378.643 185.682 378.12 185.658V170.415C383.226 169.727 387.483 167.587 390.637 163.693C393.047 160.715 394.302 157.336 394.328 153.602C394.357 149.239 392.811 145.38 389.723 142.109C386.641 138.845 382.707 137.028 378.084 136.439V119.385C383.509 118.616 387.977 116.291 391.134 111.993C393.395 108.913 394.437 105.482 394.342 101.752C394.132 93.6967 388.975 88.4453 378.109 85.27V68.4371C388.231 66.3883 394.488 60.7319 394.201 50.7533C393.929 41.3635 387.756 36.0543 378.084 34.2199V19.1295H394.331C395.065 23.918 397.351 27.9101 401.503 30.8676C404.678 33.1274 408.285 34.305 412.263 34.3254C416.915 34.3526 421.031 32.9028 424.518 30.0031C427.999 27.1137 429.937 23.4245 430.564 19.0886H448.543C449.178 20.8924 449.643 22.7132 450.441 24.3944C453.548 30.9255 461.248 35.1048 468.463 34.2914C476.933 33.3384 483.321 27.8727 484.736 20.3308C484.885 19.5345 485.026 18.9899 486.133 19.0001C491.755 19.0478 497.38 19.024 503.059 19.024C505.266 28.6078 511.301 34.4751 521.938 34.2063C531.951 33.951 537.612 28.1619 539.565 19.092H555.656V34.3254C550.546 35.0095 546.289 37.157 543.139 41.0504C540.729 44.0283 539.474 47.4078 539.452 51.1413C539.423 55.5044 540.973 59.3638 544.061 62.6344C547.142 65.8982 551.076 67.7156 555.699 68.301V85.3245C554.527 85.5729 553.341 85.7499 552.201 86.08C544.351 88.3569 538.98 95.64 539.441 103.335C539.909 111.132 546.159 117.748 554.375 119.103C555.224 119.242 555.801 119.375 555.794 120.413C555.743 125.685 555.768 130.96 555.768 136.286C545.549 138.359 539.292 144.015 539.579 153.994C539.851 163.384 546.024 168.693 555.696 170.524V185.614H539.452C538.719 180.822 536.433 176.83 532.281 173.876C529.105 171.616 525.502 170.439 521.521 170.418C516.868 170.391 512.753 171.841 509.265 174.741C505.788 177.63 503.847 181.319 503.219 185.655H485.24C484.605 183.851 484.141 182.03 483.342 180.349C480.236 173.822 472.546 169.646 465.324 170.452C456.865 171.398 450.459 176.878 449.051 184.413C448.902 185.209 448.764 185.754 447.654 185.744C442.032 185.696 436.407 185.72 430.71 185.72H430.699Z" fill="#B1DCFF"/>
</g>
<g filter="url(#filter3_f_2067_577)">
<path d="M612.073 185.72C608.817 175.608 603.214 170.639 594.66 170.459C592.418 170.411 590.048 170.755 587.932 171.443C585.813 172.134 583.715 173.236 582.02 174.604C580.325 175.973 578.895 177.769 577.799 179.614C576.707 181.448 576.174 183.572 575.335 185.716C570.636 185.716 565.74 185.716 560.844 185.716C560.431 185.716 560.017 185.682 559.494 185.658V170.415C564.6 169.727 568.857 167.587 572.011 163.693C574.421 160.715 575.676 157.336 575.702 153.602C575.731 149.239 574.185 145.38 571.097 142.109C568.015 138.845 564.081 137.028 559.458 136.439V119.385C564.884 118.616 569.351 116.291 572.508 111.993C574.769 108.913 575.811 105.482 575.716 101.752C575.506 93.6967 570.349 88.4453 559.483 85.27V68.4371C569.605 66.3883 575.862 60.7319 575.575 50.7533C575.303 41.3635 569.13 36.0543 559.458 34.2199V19.1295H575.705C576.439 23.918 578.725 27.9101 582.877 30.8676C586.052 33.1274 589.659 34.305 593.637 34.3254C598.289 34.3526 602.405 32.9028 605.892 30.0031C609.373 27.1137 611.311 23.4245 611.938 19.0886H629.917C630.552 20.8924 631.017 22.7132 631.815 24.3944C634.922 30.9255 642.623 35.1048 649.837 34.2914C658.307 33.3384 664.695 27.8727 666.11 20.3308C666.259 19.5345 666.4 18.9899 667.507 19.0001C673.129 19.0478 678.754 19.024 684.433 19.024C686.64 28.6078 692.675 34.4751 703.312 34.2063C713.325 33.951 718.986 28.1619 720.939 19.092H737.03V34.3254C731.92 35.0095 727.663 37.157 724.513 41.0504C722.103 44.0283 720.848 47.4078 720.826 51.1413C720.797 55.5044 722.347 59.3638 725.435 62.6344C728.516 65.8982 732.45 67.7156 737.074 68.301V85.3245C735.901 85.5729 734.715 85.7499 733.575 86.08C725.725 88.3569 720.354 95.64 720.815 103.335C721.283 111.132 727.533 117.748 735.749 119.103C736.598 119.242 737.175 119.375 737.168 120.413C737.117 125.685 737.142 130.96 737.142 136.286C726.923 138.359 720.666 144.015 720.953 153.994C721.225 163.384 727.398 168.693 737.07 170.524V185.614H720.826C720.093 180.822 717.807 176.83 713.655 173.876C710.479 171.616 706.876 170.439 702.895 170.418C698.242 170.391 694.127 171.841 690.639 174.741C687.162 177.63 685.221 181.319 684.593 185.655H666.615C665.979 183.851 665.515 182.03 664.716 180.349C661.61 173.822 653.92 169.646 646.698 170.452C638.239 171.398 631.833 176.878 630.425 184.413C630.276 185.209 630.138 185.754 629.028 185.744C623.406 185.696 617.781 185.72 612.084 185.72H612.073Z" fill="#B1DCFF"/>
</g>
<g filter="url(#filter4_f_2067_577)">
<path d="M793.447 185.72C790.191 175.608 784.588 170.639 776.034 170.459C773.792 170.411 771.422 170.755 769.306 171.443C767.187 172.134 765.089 173.236 763.394 174.604C761.699 175.973 760.27 177.769 759.174 179.614C758.081 181.448 757.548 183.572 756.709 185.716C752.01 185.716 747.114 185.716 742.218 185.716C741.805 185.716 741.391 185.682 740.868 185.658V170.415C745.974 169.727 750.231 167.587 753.385 163.693C755.795 160.715 757.05 157.336 757.076 153.602C757.105 149.239 755.559 145.38 752.471 142.109C749.389 138.845 745.456 137.028 740.832 136.439V119.385C746.258 118.616 750.725 116.291 753.882 111.993C756.143 108.913 757.185 105.482 757.09 101.752C756.88 93.6967 751.723 88.4453 740.857 85.27V68.4371C750.979 66.3883 757.236 60.7319 756.949 50.7533C756.677 41.3635 750.504 36.0543 740.832 34.2199V19.1295H757.08C757.813 23.918 760.099 27.9101 764.251 30.8676C767.426 33.1274 771.033 34.305 775.011 34.3254C779.663 34.3526 783.779 32.9028 787.266 30.0031C790.747 27.1137 792.685 23.4245 793.312 19.0886H811.291C811.926 20.8924 812.391 22.7132 813.189 24.3944C816.296 30.9255 823.997 35.1048 831.211 34.2914C839.682 33.3384 846.069 27.8727 847.484 20.3308C847.633 19.5345 847.774 18.9899 848.881 19.0001C854.503 19.0478 860.128 19.024 865.807 19.024C868.014 28.6078 874.049 34.4751 884.686 34.2063C894.699 33.951 900.36 28.1619 902.313 19.092H918.404V34.3254C913.294 35.0095 909.037 37.157 905.887 41.0504C903.477 44.0283 902.222 47.4078 902.2 51.1413C902.171 55.5044 903.721 59.3638 906.809 62.6344C909.89 65.8982 913.824 67.7156 918.448 68.301V85.3245C917.275 85.5729 916.089 85.7499 914.949 86.08C907.099 88.3569 901.728 95.64 902.189 103.335C902.657 111.132 908.907 117.748 917.123 119.103C917.972 119.242 918.549 119.375 918.542 120.413C918.491 125.685 918.516 130.96 918.516 136.286C908.297 138.359 902.04 144.015 902.327 153.994C902.599 163.384 908.772 168.693 918.444 170.524V185.614H902.2C901.467 180.822 899.181 176.83 895.029 173.876C891.853 171.616 888.25 170.439 884.269 170.418C879.616 170.391 875.501 171.841 872.013 174.741C868.537 177.63 866.595 181.319 865.967 185.655H847.989C847.353 183.851 846.889 182.03 846.091 180.349C842.984 173.822 835.294 169.646 828.072 170.452C819.613 171.398 813.207 176.878 811.799 184.413C811.65 185.209 811.512 185.754 810.402 185.744C804.78 185.696 799.155 185.72 793.458 185.72H793.447Z" fill="#B1DCFF"/>
</g>
<g filter="url(#filter5_f_2067_577)">
<path d="M974.821 185.72C971.565 175.608 965.962 170.639 957.408 170.459C955.166 170.411 952.796 170.755 950.68 171.443C948.561 172.134 946.463 173.236 944.768 174.604C943.073 175.973 941.644 177.769 940.548 179.614C939.455 181.448 938.922 183.572 938.083 185.716C933.384 185.716 928.488 185.716 923.592 185.716C923.179 185.716 922.765 185.682 922.242 185.658V170.415C927.348 169.727 931.605 167.587 934.759 163.693C937.169 160.715 938.425 157.336 938.45 153.602C938.479 149.239 936.933 145.38 933.845 142.109C930.763 138.845 926.83 137.028 922.206 136.439V119.385C927.632 118.616 932.099 116.291 935.256 111.993C937.517 108.913 938.559 105.482 938.464 101.752C938.254 93.6967 933.097 88.4453 922.231 85.27V68.4371C932.353 66.3883 938.61 60.7319 938.323 50.7533C938.051 41.3635 931.878 36.0543 922.206 34.2199V19.1295H938.454C939.187 23.918 941.473 27.9101 945.625 30.8676C948.8 33.1274 952.407 34.305 956.385 34.3254C961.037 34.3526 965.153 32.9028 968.64 30.0031C972.121 27.1137 974.059 23.4245 974.686 19.0886H992.665C993.3 20.8924 993.765 22.7132 994.563 24.3944C997.67 30.9255 1005.37 35.1048 1012.59 34.2914C1021.06 33.3384 1027.44 27.8727 1028.86 20.3308C1029.01 19.5345 1029.15 18.9899 1030.26 19.0001C1035.88 19.0478 1041.5 19.024 1047.18 19.024C1049.39 28.6078 1055.42 34.4751 1066.06 34.2063C1076.07 33.951 1081.73 28.1619 1083.69 19.092H1099.78V34.3254C1094.67 35.0095 1090.41 37.157 1087.26 41.0504C1084.85 44.0283 1083.6 47.4078 1083.57 51.1413C1083.55 55.5044 1085.09 59.3638 1088.18 62.6344C1091.26 65.8982 1095.2 67.7156 1099.82 68.301V85.3245C1098.65 85.5729 1097.46 85.7499 1096.32 86.08C1088.47 88.3569 1083.1 95.64 1083.56 103.335C1084.03 111.132 1090.28 117.748 1098.5 119.103C1099.35 119.242 1099.92 119.375 1099.92 120.413C1099.87 125.685 1099.89 130.96 1099.89 136.286C1089.67 138.359 1083.41 144.015 1083.7 153.994C1083.97 163.384 1090.15 168.693 1099.82 170.524V185.614H1083.57C1082.84 180.822 1080.55 176.83 1076.4 173.876C1073.23 171.616 1069.62 170.439 1065.64 170.418C1060.99 170.391 1056.87 171.841 1053.39 174.741C1049.91 177.63 1047.97 181.319 1047.34 185.655H1029.36C1028.73 183.851 1028.26 182.03 1027.46 180.349C1024.36 173.822 1016.67 169.646 1009.45 170.452C1000.99 171.398 994.581 176.878 993.173 184.413C993.024 185.209 992.886 185.754 991.776 185.744C986.154 185.696 980.529 185.72 974.832 185.72H974.821Z" fill="#B1DCFF"/>
</g>
<g filter="url(#filter6_f_2067_577)">
<path d="M1152.53 185.72C1149.28 175.608 1143.67 170.639 1135.12 170.459C1132.88 170.411 1130.51 170.755 1128.39 171.443C1126.27 172.134 1124.17 173.236 1122.48 174.604C1120.78 175.973 1119.35 177.769 1118.26 179.614C1117.17 181.448 1116.63 183.572 1115.79 185.716C1111.09 185.716 1106.2 185.716 1101.3 185.716C1100.89 185.716 1100.47 185.682 1099.95 185.658V170.415C1105.06 169.727 1109.32 167.587 1112.47 163.693C1114.88 160.715 1116.13 157.336 1116.16 153.602C1116.19 149.239 1114.64 145.38 1111.55 142.109C1108.47 138.845 1104.54 137.028 1099.92 136.439V119.385C1105.34 118.616 1109.81 116.291 1112.97 111.993C1115.23 108.913 1116.27 105.482 1116.17 101.752C1115.96 93.6967 1110.81 88.4453 1099.94 85.27V68.4371C1110.06 66.3883 1116.32 60.7319 1116.03 50.7533C1115.76 41.3635 1109.59 36.0543 1099.92 34.2199V19.1295H1116.16C1116.9 23.918 1119.18 27.9101 1123.33 30.8676C1126.51 33.1274 1130.12 34.305 1134.09 34.3254C1138.75 34.3526 1142.86 32.9028 1146.35 30.0031C1149.83 27.1137 1151.77 23.4245 1152.4 19.0886H1170.38C1171.01 20.8924 1171.47 22.7132 1172.27 24.3944C1175.38 30.9255 1183.08 35.1048 1190.3 34.2914C1198.77 33.3384 1205.15 27.8727 1206.57 20.3308C1206.72 19.5345 1206.86 18.9899 1207.97 19.0001C1213.59 19.0478 1219.21 19.024 1224.89 19.024C1227.1 28.6078 1233.13 34.4751 1243.77 34.2063C1253.78 33.951 1259.44 28.1619 1261.4 19.092H1277.49V34.3254C1272.38 35.0095 1268.12 37.157 1264.97 41.0504C1262.56 44.0283 1261.31 47.4078 1261.28 51.1413C1261.26 55.5044 1262.8 59.3638 1265.89 62.6344C1268.97 65.8982 1272.91 67.7156 1277.53 68.301V85.3245C1276.36 85.5729 1275.17 85.7499 1274.03 86.08C1266.18 88.3569 1260.81 95.64 1261.27 103.335C1261.74 111.132 1267.99 117.748 1276.21 119.103C1277.06 119.242 1277.63 119.375 1277.63 120.413C1277.58 125.685 1277.6 130.96 1277.6 136.286C1267.38 138.359 1261.12 144.015 1261.41 153.994C1261.68 163.384 1267.86 168.693 1277.53 170.524V185.614H1261.28C1260.55 180.822 1258.26 176.83 1254.11 173.876C1250.94 171.616 1247.33 170.439 1243.35 170.418C1238.7 170.391 1234.58 171.841 1231.1 174.741C1227.62 177.63 1225.68 181.319 1225.05 185.655H1207.07C1206.44 183.851 1205.97 182.03 1205.17 180.349C1202.07 173.822 1194.38 169.646 1187.16 170.452C1178.7 171.398 1172.29 176.878 1170.88 184.413C1170.73 185.209 1170.6 185.754 1169.49 185.744C1163.86 185.696 1158.24 185.72 1152.54 185.72H1152.53Z" fill="#B1DCFF"/>
</g>
<g filter="url(#filter7_f_2067_577)">
<path d="M1333.9 185.72C1330.65 175.608 1325.05 170.639 1316.49 170.459C1314.25 170.411 1311.88 170.755 1309.76 171.443C1307.64 172.134 1305.55 173.236 1303.85 174.604C1302.16 175.973 1300.73 177.769 1299.63 179.614C1298.54 181.448 1298.01 183.572 1297.17 185.716C1292.47 185.716 1287.57 185.716 1282.68 185.716C1282.26 185.716 1281.85 185.682 1281.33 185.658V170.415C1286.43 169.727 1290.69 167.587 1293.84 163.693C1296.25 160.715 1297.51 157.336 1297.53 153.602C1297.56 149.239 1296.02 145.38 1292.93 142.109C1289.85 138.845 1285.91 137.028 1281.29 136.439V119.385C1286.72 118.616 1291.18 116.291 1294.34 111.993C1296.6 108.913 1297.64 105.482 1297.55 101.752C1297.34 93.6967 1292.18 88.4453 1281.32 85.27V68.4371C1291.44 66.3883 1297.69 60.7319 1297.41 50.7533C1297.13 41.3635 1290.96 36.0543 1281.29 34.2199V19.1295H1297.54C1298.27 23.918 1300.56 27.9101 1304.71 30.8676C1307.88 33.1274 1311.49 34.305 1315.47 34.3254C1320.12 34.3526 1324.24 32.9028 1327.72 30.0031C1331.2 27.1137 1333.14 23.4245 1333.77 19.0886H1351.75C1352.38 20.8924 1352.85 22.7132 1353.65 24.3944C1356.75 30.9255 1364.45 35.1048 1371.67 34.2914C1380.14 33.3384 1386.53 27.8727 1387.94 20.3308C1388.09 19.5345 1388.23 18.9899 1389.34 19.0001C1394.96 19.0478 1400.59 19.024 1406.27 19.024C1408.47 28.6078 1414.51 34.4751 1425.14 34.2063C1435.16 33.951 1440.82 28.1619 1442.77 19.092H1458.86V34.3254C1453.75 35.0095 1449.5 37.157 1446.35 41.0504C1443.94 44.0283 1442.68 47.4078 1442.66 51.1413C1442.63 55.5044 1444.18 59.3638 1447.27 62.6344C1450.35 65.8982 1454.28 67.7156 1458.91 68.301V85.3245C1457.73 85.5729 1456.55 85.7499 1455.41 86.08C1447.56 88.3569 1442.19 95.64 1442.65 103.335C1443.12 111.132 1449.36 117.748 1457.58 119.103C1458.43 119.242 1459.01 119.375 1459 120.413C1458.95 125.685 1458.97 130.96 1458.97 136.286C1448.75 138.359 1442.5 144.015 1442.79 153.994C1443.06 163.384 1449.23 168.693 1458.9 170.524V185.614H1442.66C1441.92 180.822 1439.64 176.83 1435.49 173.876C1432.31 171.616 1428.71 170.439 1424.73 170.418C1420.07 170.391 1415.96 171.841 1412.47 174.741C1408.99 177.63 1407.05 181.319 1406.43 185.655H1388.45C1387.81 183.851 1387.35 182.03 1386.55 180.349C1383.44 173.822 1375.75 169.646 1368.53 170.452C1360.07 171.398 1353.67 176.878 1352.26 184.413C1352.11 185.209 1351.97 185.754 1350.86 185.744C1345.24 185.696 1339.61 185.72 1333.92 185.72H1333.9Z" fill="#B1DCFF"/>
</g>
<g filter="url(#filter8_f_2067_577)">
<path d="M1511.61 185.72C1508.36 175.608 1502.76 170.639 1494.2 170.459C1491.96 170.411 1489.59 170.755 1487.47 171.443C1485.35 172.134 1483.26 173.236 1481.56 174.604C1479.87 175.973 1478.44 177.769 1477.34 179.614C1476.25 181.448 1475.72 183.572 1474.88 185.716C1470.18 185.716 1465.28 185.716 1460.39 185.716C1459.97 185.716 1459.56 185.682 1459.04 185.658V170.415C1464.14 169.727 1468.4 167.587 1471.55 163.693C1473.96 160.715 1475.22 157.336 1475.24 153.602C1475.27 149.239 1473.73 145.38 1470.64 142.109C1467.56 138.845 1463.62 137.028 1459 136.439V119.385C1464.43 118.616 1468.89 116.291 1472.05 111.993C1474.31 108.913 1475.35 105.482 1475.26 101.752C1475.05 93.6967 1469.89 88.4453 1459.03 85.27V68.4371C1469.15 66.3883 1475.4 60.7319 1475.12 50.7533C1474.84 41.3635 1468.67 36.0543 1459 34.2199V19.1295H1475.25C1475.98 23.918 1478.27 27.9101 1482.42 30.8676C1485.59 33.1274 1489.2 34.305 1493.18 34.3254C1497.83 34.3526 1501.95 32.9028 1505.43 30.0031C1508.91 27.1137 1510.85 23.4245 1511.48 19.0886H1529.46C1530.09 20.8924 1530.56 22.7132 1531.36 24.3944C1534.46 30.9255 1542.16 35.1048 1549.38 34.2914C1557.85 33.3384 1564.24 27.8727 1565.65 20.3308C1565.8 19.5345 1565.94 18.9899 1567.05 19.0001C1572.67 19.0478 1578.3 19.024 1583.98 19.024C1586.18 28.6078 1592.22 34.4751 1602.85 34.2063C1612.87 33.951 1618.53 28.1619 1620.48 19.092H1636.57V34.3254C1631.46 35.0095 1627.21 37.157 1624.06 41.0504C1621.65 44.0283 1620.39 47.4078 1620.37 51.1413C1620.34 55.5044 1621.89 59.3638 1624.98 62.6344C1628.06 65.8982 1631.99 67.7156 1636.62 68.301V85.3245C1635.44 85.5729 1634.26 85.7499 1633.12 86.08C1625.27 88.3569 1619.9 95.64 1620.36 103.335C1620.83 111.132 1627.07 117.748 1635.29 119.103C1636.14 119.242 1636.72 119.375 1636.71 120.413C1636.66 125.685 1636.68 130.96 1636.68 136.286C1626.46 138.359 1620.21 144.015 1620.5 153.994C1620.77 163.384 1626.94 168.693 1636.61 170.524V185.614H1620.37C1619.63 180.822 1617.35 176.83 1613.2 173.876C1610.02 171.616 1606.42 170.439 1602.44 170.418C1597.78 170.391 1593.67 171.841 1590.18 174.741C1586.7 177.63 1584.76 181.319 1584.14 185.655H1566.16C1565.52 183.851 1565.06 182.03 1564.26 180.349C1561.15 173.822 1553.46 169.646 1546.24 170.452C1537.78 171.398 1531.38 176.878 1529.97 184.413C1529.82 185.209 1529.68 185.754 1528.57 185.744C1522.95 185.696 1517.32 185.72 1511.63 185.72H1511.61Z" fill="#B1DCFF"/>
</g>
<g filter="url(#filter9_f_2067_577)">
<path d="M1692.99 185.72C1689.73 175.608 1684.13 170.639 1675.58 170.459C1673.33 170.411 1670.96 170.755 1668.85 171.443C1666.73 172.134 1664.63 173.236 1662.94 174.604C1661.24 175.973 1659.81 177.769 1658.72 179.614C1657.62 181.448 1657.09 183.572 1656.25 185.716C1651.55 185.716 1646.66 185.716 1641.76 185.716C1641.35 185.716 1640.93 185.682 1640.41 185.658V170.415C1645.52 169.727 1649.77 167.587 1652.93 163.693C1655.34 160.715 1656.59 157.336 1656.62 153.602C1656.65 149.239 1655.1 145.38 1652.01 142.109C1648.93 138.845 1645 137.028 1640.37 136.439V119.385C1645.8 118.616 1650.27 116.291 1653.42 111.993C1655.69 108.913 1656.73 105.482 1656.63 101.752C1656.42 93.6967 1651.26 88.4453 1640.4 85.27V68.4371C1650.52 66.3883 1656.78 60.7319 1656.49 50.7533C1656.22 41.3635 1650.05 36.0543 1640.37 34.2199V19.1295H1656.62C1657.35 23.918 1659.64 27.9101 1663.79 30.8676C1666.97 33.1274 1670.58 34.305 1674.55 34.3254C1679.21 34.3526 1683.32 32.9028 1686.81 30.0031C1690.29 27.1137 1692.23 23.4245 1692.85 19.0886H1710.83C1711.47 20.8924 1711.93 22.7132 1712.73 24.3944C1715.84 30.9255 1723.54 35.1048 1730.75 34.2914C1739.22 33.3384 1745.61 27.8727 1747.03 20.3308C1747.17 19.5345 1747.32 18.9899 1748.42 19.0001C1754.04 19.0478 1759.67 19.024 1765.35 19.024C1767.56 28.6078 1773.59 34.4751 1784.23 34.2063C1794.24 33.951 1799.9 28.1619 1801.85 19.092H1817.95V34.3254C1812.84 35.0095 1808.58 37.157 1805.43 41.0504C1803.02 44.0283 1801.76 47.4078 1801.74 51.1413C1801.71 55.5044 1803.26 59.3638 1806.35 62.6344C1809.43 65.8982 1813.37 67.7156 1817.99 68.301V85.3245C1816.82 85.5729 1815.63 85.7499 1814.49 86.08C1806.64 88.3569 1801.27 95.64 1801.73 103.335C1802.2 111.132 1808.45 117.748 1816.66 119.103C1817.51 119.242 1818.09 119.375 1818.08 120.413C1818.03 125.685 1818.06 130.96 1818.06 136.286C1807.84 138.359 1801.58 144.015 1801.87 153.994C1802.14 163.384 1808.31 168.693 1817.99 170.524V185.614H1801.74C1801.01 180.822 1798.72 176.83 1794.57 173.876C1791.4 171.616 1787.79 170.439 1783.81 170.418C1779.16 170.391 1775.04 171.841 1771.56 174.741C1768.08 177.63 1766.14 181.319 1765.51 185.655H1747.53C1746.9 183.851 1746.43 182.03 1745.63 180.349C1742.53 173.822 1734.84 169.646 1727.61 170.452C1719.15 171.398 1712.75 176.878 1711.34 184.413C1711.19 185.209 1711.05 185.754 1709.94 185.744C1704.32 185.696 1698.7 185.72 1693 185.72H1692.99Z" fill="#B1DCFF"/>
</g>
<g filter="url(#filter10_f_2067_577)">
<path d="M1870.7 185.72C1867.44 175.608 1861.84 170.639 1853.29 170.459C1851.04 170.411 1848.67 170.755 1846.56 171.443C1844.44 172.134 1842.34 173.236 1840.65 174.604C1838.95 175.973 1837.52 177.769 1836.43 179.614C1835.33 181.448 1834.8 183.572 1833.96 185.716C1829.26 185.716 1824.37 185.716 1819.47 185.716C1819.06 185.716 1818.64 185.682 1818.12 185.658V170.415C1823.23 169.727 1827.48 167.587 1830.64 163.693C1833.05 160.715 1834.3 157.336 1834.33 153.602C1834.36 149.239 1832.81 145.38 1829.72 142.109C1826.64 138.845 1822.71 137.028 1818.08 136.439V119.385C1823.51 118.616 1827.98 116.291 1831.13 111.993C1833.4 108.913 1834.44 105.482 1834.34 101.752C1834.13 93.6967 1828.97 88.4453 1818.11 85.27V68.4371C1828.23 66.3883 1834.49 60.7319 1834.2 50.7533C1833.93 41.3635 1827.76 36.0543 1818.08 34.2199V19.1295H1834.33C1835.06 23.918 1837.35 27.9101 1841.5 30.8676C1844.68 33.1274 1848.29 34.305 1852.26 34.3254C1856.92 34.3526 1861.03 32.9028 1864.52 30.0031C1868 27.1137 1869.94 23.4245 1870.56 19.0886H1888.54C1889.18 20.8924 1889.64 22.7132 1890.44 24.3944C1893.55 30.9255 1901.25 35.1048 1908.46 34.2914C1916.93 33.3384 1923.32 27.8727 1924.74 20.3308C1924.88 19.5345 1925.03 18.9899 1926.13 19.0001C1931.75 19.0478 1937.38 19.024 1943.06 19.024C1945.27 28.6078 1951.3 34.4751 1961.94 34.2063C1971.95 33.951 1977.61 28.1619 1979.56 19.092H1995.66V34.3254C1990.55 35.0095 1986.29 37.157 1983.14 41.0504C1980.73 44.0283 1979.47 47.4078 1979.45 51.1413C1979.42 55.5044 1980.97 59.3638 1984.06 62.6344C1987.14 65.8982 1991.08 67.7156 1995.7 68.301V85.3245C1994.53 85.5729 1993.34 85.7499 1992.2 86.08C1984.35 88.3569 1978.98 95.64 1979.44 103.335C1979.91 111.132 1986.16 117.748 1994.37 119.103C1995.22 119.242 1995.8 119.375 1995.79 120.413C1995.74 125.685 1995.77 130.96 1995.77 136.286C1985.55 138.359 1979.29 144.015 1979.58 153.994C1979.85 163.384 1986.02 168.693 1995.7 170.524V185.614H1979.45C1978.72 180.822 1976.43 176.83 1972.28 173.876C1969.11 171.616 1965.5 170.439 1961.52 170.418C1956.87 170.391 1952.75 171.841 1949.27 174.741C1945.79 177.63 1943.85 181.319 1943.22 185.655H1925.24C1924.61 183.851 1924.14 182.03 1923.34 180.349C1920.24 173.822 1912.55 169.646 1905.32 170.452C1896.86 171.398 1890.46 176.878 1889.05 184.413C1888.9 185.209 1888.76 185.754 1887.65 185.744C1882.03 185.696 1876.41 185.72 1870.71 185.72H1870.7Z" fill="#B1DCFF"/>
</g>
<g filter="url(#filter11_f_2067_577)">
<path d="M2052.07 185.72C2048.82 175.608 2043.21 170.639 2034.66 170.459C2032.42 170.411 2030.05 170.755 2027.93 171.443C2025.81 172.134 2023.71 173.236 2022.02 174.604C2020.33 175.973 2018.9 177.769 2017.8 179.614C2016.71 181.448 2016.17 183.572 2015.34 185.716C2010.64 185.716 2005.74 185.716 2000.84 185.716C2000.43 185.716 2000.02 185.682 1999.49 185.658V170.415C2004.6 169.727 2008.86 167.587 2012.01 163.693C2014.42 160.715 2015.68 157.336 2015.7 153.602C2015.73 149.239 2014.18 145.38 2011.1 142.109C2008.02 138.845 2004.08 137.028 1999.46 136.439V119.385C2004.88 118.616 2009.35 116.291 2012.51 111.993C2014.77 108.913 2015.81 105.482 2015.72 101.752C2015.51 93.6967 2010.35 88.4453 1999.48 85.27V68.4371C2009.6 66.3883 2015.86 60.7319 2015.57 50.7533C2015.3 41.3635 2009.13 36.0543 1999.46 34.2199V19.1295H2015.71C2016.44 23.918 2018.72 27.9101 2022.88 30.8676C2026.05 33.1274 2029.66 34.305 2033.64 34.3254C2038.29 34.3526 2042.4 32.9028 2045.89 30.0031C2049.37 27.1137 2051.31 23.4245 2051.94 19.0886H2069.92C2070.55 20.8924 2071.02 22.7132 2071.82 24.3944C2074.92 30.9255 2082.62 35.1048 2089.84 34.2914C2098.31 33.3384 2104.69 27.8727 2106.11 20.3308C2106.26 19.5345 2106.4 18.9899 2107.51 19.0001C2113.13 19.0478 2118.75 19.024 2124.43 19.024C2126.64 28.6078 2132.68 34.4751 2143.31 34.2063C2153.32 33.951 2158.99 28.1619 2160.94 19.092H2177.03V34.3254C2171.92 35.0095 2167.66 37.157 2164.51 41.0504C2162.1 44.0283 2160.85 47.4078 2160.83 51.1413C2160.8 55.5044 2162.35 59.3638 2165.43 62.6344C2168.52 65.8982 2172.45 67.7156 2177.07 68.301V85.3245C2175.9 85.5729 2174.71 85.7499 2173.58 86.08C2165.73 88.3569 2160.35 95.64 2160.82 103.335C2161.28 111.132 2167.53 117.748 2175.75 119.103C2176.6 119.242 2177.18 119.375 2177.17 120.413C2177.12 125.685 2177.14 130.96 2177.14 136.286C2166.92 138.359 2160.67 144.015 2160.95 153.994C2161.23 163.384 2167.4 168.693 2177.07 170.524V185.614H2160.83C2160.09 180.822 2157.81 176.83 2153.65 173.876C2150.48 171.616 2146.88 170.439 2142.89 170.418C2138.24 170.391 2134.13 171.841 2130.64 174.741C2127.16 177.63 2125.22 181.319 2124.59 185.655H2106.61C2105.98 183.851 2105.51 182.03 2104.72 180.349C2101.61 173.822 2093.92 169.646 2086.7 170.452C2078.24 171.398 2071.83 176.878 2070.43 184.413C2070.28 185.209 2070.14 185.754 2069.03 185.744C2063.41 185.696 2057.78 185.72 2052.08 185.72H2052.07Z" fill="#B1DCFF"/>
</g>
<g filter="url(#filter12_f_2067_577)">
<path d="M2233.45 185.72C2230.19 175.608 2224.59 170.639 2216.03 170.459C2213.79 170.411 2211.42 170.755 2209.31 171.443C2207.19 172.134 2205.09 173.236 2203.39 174.604C2201.7 175.973 2200.27 177.769 2199.17 179.614C2198.08 181.448 2197.55 183.572 2196.71 185.716C2192.01 185.716 2187.11 185.716 2182.22 185.716C2181.8 185.716 2181.39 185.682 2180.87 185.658V170.415C2185.97 169.727 2190.23 167.587 2193.39 163.693C2195.79 160.715 2197.05 157.336 2197.08 153.602C2197.1 149.239 2195.56 145.38 2192.47 142.109C2189.39 138.845 2185.46 137.028 2180.83 136.439V119.385C2186.26 118.616 2190.72 116.291 2193.88 111.993C2196.14 108.913 2197.18 105.482 2197.09 101.752C2196.88 93.6967 2191.72 88.4453 2180.86 85.27V68.4371C2190.98 66.3883 2197.24 60.7319 2196.95 50.7533C2196.68 41.3635 2190.5 36.0543 2180.83 34.2199V19.1295H2197.08C2197.81 23.918 2200.1 27.9101 2204.25 30.8676C2207.43 33.1274 2211.03 34.305 2215.01 34.3254C2219.66 34.3526 2223.78 32.9028 2227.27 30.0031C2230.75 27.1137 2232.68 23.4245 2233.31 19.0886H2251.29C2251.93 20.8924 2252.39 22.7132 2253.19 24.3944C2256.3 30.9255 2264 35.1048 2271.21 34.2914C2279.68 33.3384 2286.07 27.8727 2287.48 20.3308C2287.63 19.5345 2287.77 18.9899 2288.88 19.0001C2294.5 19.0478 2300.13 19.024 2305.81 19.024C2308.01 28.6078 2314.05 34.4751 2324.69 34.2063C2334.7 33.951 2340.36 28.1619 2342.31 19.092H2358.4V34.3254C2353.29 35.0095 2349.04 37.157 2345.89 41.0504C2343.48 44.0283 2342.22 47.4078 2342.2 51.1413C2342.17 55.5044 2343.72 59.3638 2346.81 62.6344C2349.89 65.8982 2353.82 67.7156 2358.45 68.301V85.3245C2357.28 85.5729 2356.09 85.7499 2354.95 86.08C2347.1 88.3569 2341.73 95.64 2342.19 103.335C2342.66 111.132 2348.91 117.748 2357.12 119.103C2357.97 119.242 2358.55 119.375 2358.54 120.413C2358.49 125.685 2358.52 130.96 2358.52 136.286C2348.3 138.359 2342.04 144.015 2342.33 153.994C2342.6 163.384 2348.77 168.693 2358.44 170.524V185.614H2342.2C2341.47 180.822 2339.18 176.83 2335.03 173.876C2331.85 171.616 2328.25 170.439 2324.27 170.418C2319.62 170.391 2315.5 171.841 2312.01 174.741C2308.54 177.63 2306.59 181.319 2305.97 185.655H2287.99C2287.35 183.851 2286.89 182.03 2286.09 180.349C2282.98 173.822 2275.29 169.646 2268.07 170.452C2259.61 171.398 2253.21 176.878 2251.8 184.413C2251.65 185.209 2251.51 185.754 2250.4 185.744C2244.78 185.696 2239.16 185.72 2233.46 185.72H2233.45Z" fill="#B1DCFF"/>
</g>
<g filter="url(#filter13_f_2067_577)">
<path d="M2414.82 185.72C2411.57 175.608 2405.96 170.639 2397.41 170.459C2395.17 170.411 2392.8 170.755 2390.68 171.443C2388.56 172.134 2386.46 173.236 2384.77 174.604C2383.07 175.973 2381.64 177.769 2380.55 179.614C2379.46 181.448 2378.92 183.572 2378.08 185.716C2373.38 185.716 2368.49 185.716 2363.59 185.716C2363.18 185.716 2362.76 185.682 2362.24 185.658V170.415C2367.35 169.727 2371.61 167.587 2374.76 163.693C2377.17 160.715 2378.42 157.336 2378.45 153.602C2378.48 149.239 2376.93 145.38 2373.84 142.109C2370.76 138.845 2366.83 137.028 2362.21 136.439V119.385C2367.63 118.616 2372.1 116.291 2375.26 111.993C2377.52 108.913 2378.56 105.482 2378.46 101.752C2378.25 93.6967 2373.1 88.4453 2362.23 85.27V68.4371C2372.35 66.3883 2378.61 60.7319 2378.32 50.7533C2378.05 41.3635 2371.88 36.0543 2362.21 34.2199V19.1295H2378.45C2379.19 23.918 2381.47 27.9101 2385.62 30.8676C2388.8 33.1274 2392.41 34.305 2396.38 34.3254C2401.04 34.3526 2405.15 32.9028 2408.64 30.0031C2412.12 27.1137 2414.06 23.4245 2414.69 19.0886H2432.67C2433.3 20.8924 2433.76 22.7132 2434.56 24.3944C2437.67 30.9255 2445.37 35.1048 2452.59 34.2914C2461.06 33.3384 2467.44 27.8727 2468.86 20.3308C2469.01 19.5345 2469.15 18.9899 2470.26 19.0001C2475.88 19.0478 2481.5 19.024 2487.18 19.024C2489.39 28.6078 2495.42 34.4751 2506.06 34.2063C2516.07 33.951 2521.73 28.1619 2523.69 19.092H2539.78V34.3254C2534.67 35.0095 2530.41 37.157 2527.26 41.0504C2524.85 44.0283 2523.6 47.4078 2523.57 51.1413C2523.55 55.5044 2525.09 59.3638 2528.18 62.6344C2531.26 65.8982 2535.2 67.7156 2539.82 68.301V85.3245C2538.65 85.5729 2537.46 85.7499 2536.32 86.08C2528.47 88.3569 2523.1 95.64 2523.56 103.335C2524.03 111.132 2530.28 117.748 2538.5 119.103C2539.35 119.242 2539.92 119.375 2539.92 120.413C2539.87 125.685 2539.89 130.96 2539.89 136.286C2529.67 138.359 2523.41 144.015 2523.7 153.994C2523.97 163.384 2530.15 168.693 2539.82 170.524V185.614H2523.57C2522.84 180.822 2520.55 176.83 2516.4 173.876C2513.23 171.616 2509.62 170.439 2505.64 170.418C2500.99 170.391 2496.87 171.841 2493.39 174.741C2489.91 177.63 2487.97 181.319 2487.34 185.655H2469.36C2468.73 183.851 2468.26 182.03 2467.46 180.349C2464.36 173.822 2456.67 169.646 2449.45 170.452C2440.99 171.398 2434.58 176.878 2433.17 184.413C2433.02 185.209 2432.89 185.754 2431.78 185.744C2426.15 185.696 2420.53 185.72 2414.83 185.72H2414.82Z" fill="#B1DCFF"/>
</g>
<g filter="url(#filter14_f_2067_577)">
<path d="M2592.53 185.72C2589.28 175.608 2583.67 170.639 2575.12 170.459C2572.88 170.411 2570.51 170.755 2568.39 171.443C2566.27 172.134 2564.17 173.236 2562.48 174.604C2560.78 175.973 2559.35 177.769 2558.26 179.614C2557.17 181.448 2556.63 183.572 2555.79 185.716C2551.09 185.716 2546.2 185.716 2541.3 185.716C2540.89 185.716 2540.47 185.682 2539.95 185.658V170.415C2545.06 169.727 2549.32 167.587 2552.47 163.693C2554.88 160.715 2556.13 157.336 2556.16 153.602C2556.19 149.239 2554.64 145.38 2551.55 142.109C2548.47 138.845 2544.54 137.028 2539.92 136.439V119.385C2545.34 118.616 2549.81 116.291 2552.97 111.993C2555.23 108.913 2556.27 105.482 2556.17 101.752C2555.96 93.6967 2550.81 88.4453 2539.94 85.27V68.4371C2550.06 66.3883 2556.32 60.7319 2556.03 50.7533C2555.76 41.3635 2549.59 36.0543 2539.92 34.2199V19.1295H2556.16C2556.9 23.918 2559.18 27.9101 2563.33 30.8676C2566.51 33.1274 2570.12 34.305 2574.09 34.3254C2578.75 34.3526 2582.86 32.9028 2586.35 30.0031C2589.83 27.1137 2591.77 23.4245 2592.4 19.0886H2610.38C2611.01 20.8924 2611.47 22.7132 2612.27 24.3944C2615.38 30.9255 2623.08 35.1048 2630.3 34.2914C2638.77 33.3384 2645.15 27.8727 2646.57 20.3308C2646.72 19.5345 2646.86 18.9899 2647.97 19.0001C2653.59 19.0478 2659.21 19.024 2664.89 19.024C2667.1 28.6078 2673.13 34.4751 2683.77 34.2063C2693.78 33.951 2699.44 28.1619 2701.4 19.092H2717.49V34.3254C2712.38 35.0095 2708.12 37.157 2704.97 41.0504C2702.56 44.0283 2701.31 47.4078 2701.28 51.1413C2701.26 55.5044 2702.8 59.3638 2705.89 62.6344C2708.97 65.8982 2712.91 67.7156 2717.53 68.301V85.3245C2716.36 85.5729 2715.17 85.7499 2714.03 86.08C2706.18 88.3569 2700.81 95.64 2701.27 103.335C2701.74 111.132 2707.99 117.748 2716.21 119.103C2717.06 119.242 2717.63 119.375 2717.63 120.413C2717.58 125.685 2717.6 130.96 2717.6 136.286C2707.38 138.359 2701.12 144.015 2701.41 153.994C2701.68 163.384 2707.86 168.693 2717.53 170.524V185.614H2701.28C2700.55 180.822 2698.26 176.83 2694.11 173.876C2690.94 171.616 2687.33 170.439 2683.35 170.418C2678.7 170.391 2674.58 171.841 2671.1 174.741C2667.62 177.63 2665.68 181.319 2665.05 185.655H2647.07C2646.44 183.851 2645.97 182.03 2645.17 180.349C2642.07 173.822 2634.38 169.646 2627.16 170.452C2618.7 171.398 2612.29 176.878 2610.88 184.413C2610.73 185.209 2610.6 185.754 2609.49 185.744C2603.86 185.696 2598.24 185.72 2592.54 185.72H2592.53Z" fill="#B1DCFF"/>
</g>
<g filter="url(#filter15_f_2067_577)">
<path d="M2773.9 185.72C2770.65 175.608 2765.05 170.639 2756.49 170.459C2754.25 170.411 2751.88 170.755 2749.76 171.443C2747.64 172.134 2745.55 173.236 2743.85 174.604C2742.16 175.973 2740.73 177.769 2739.63 179.614C2738.54 181.448 2738.01 183.572 2737.17 185.716C2732.47 185.716 2727.57 185.716 2722.68 185.716C2722.26 185.716 2721.85 185.682 2721.33 185.658V170.415C2726.43 169.727 2730.69 167.587 2733.84 163.693C2736.25 160.715 2737.51 157.336 2737.53 153.602C2737.56 149.239 2736.02 145.38 2732.93 142.109C2729.85 138.845 2725.91 137.028 2721.29 136.439V119.385C2726.72 118.616 2731.18 116.291 2734.34 111.993C2736.6 108.913 2737.64 105.482 2737.55 101.752C2737.34 93.6967 2732.18 88.4453 2721.32 85.27V68.4371C2731.44 66.3883 2737.69 60.7319 2737.41 50.7533C2737.13 41.3635 2730.96 36.0543 2721.29 34.2199V19.1295H2737.54C2738.27 23.918 2740.56 27.9101 2744.71 30.8676C2747.88 33.1274 2751.49 34.305 2755.47 34.3254C2760.12 34.3526 2764.24 32.9028 2767.72 30.0031C2771.2 27.1137 2773.14 23.4245 2773.77 19.0886H2791.75C2792.38 20.8924 2792.85 22.7132 2793.65 24.3944C2796.75 30.9255 2804.45 35.1048 2811.67 34.2914C2820.14 33.3384 2826.53 27.8727 2827.94 20.3308C2828.09 19.5345 2828.23 18.9899 2829.34 19.0001C2834.96 19.0478 2840.59 19.024 2846.27 19.024C2848.47 28.6078 2854.51 34.4751 2865.14 34.2063C2875.16 33.951 2880.82 28.1619 2882.77 19.092H2898.86V34.3254C2893.75 35.0095 2889.5 37.157 2886.35 41.0504C2883.94 44.0283 2882.68 47.4078 2882.66 51.1413C2882.63 55.5044 2884.18 59.3638 2887.27 62.6344C2890.35 65.8982 2894.28 67.7156 2898.91 68.301V85.3245C2897.73 85.5729 2896.55 85.7499 2895.41 86.08C2887.56 88.3569 2882.19 95.64 2882.65 103.335C2883.12 111.132 2889.36 117.748 2897.58 119.103C2898.43 119.242 2899.01 119.375 2899 120.413C2898.95 125.685 2898.97 130.96 2898.97 136.286C2888.75 138.359 2882.5 144.015 2882.79 153.994C2883.06 163.384 2889.23 168.693 2898.9 170.524V185.614H2882.66C2881.92 180.822 2879.64 176.83 2875.49 173.876C2872.31 171.616 2868.71 170.439 2864.73 170.418C2860.07 170.391 2855.96 171.841 2852.47 174.741C2848.99 177.63 2847.05 181.319 2846.43 185.655H2828.45C2827.81 183.851 2827.35 182.03 2826.55 180.349C2823.44 173.822 2815.75 169.646 2808.53 170.452C2800.07 171.398 2793.67 176.878 2792.26 184.413C2792.11 185.209 2791.97 185.754 2790.86 185.744C2785.24 185.696 2779.61 185.72 2773.92 185.72H2773.9Z" fill="#B1DCFF"/>
</g>
<defs>
<filter id="filter0_f_2067_577" x="0.67939" y="0.67939" width="214.351" height="203.385" filterUnits="userSpaceOnUse" color-interpolation-filters="sRGB">
<feFlood flood-opacity="0" result="BackgroundImageFix"/>
<feBlend mode="normal" in="SourceGraphic" in2="BackgroundImageFix" result="shape"/>
<feGaussianBlur stdDeviation="9.16031" result="effect1_foregroundBlur_2067_577"/>
</filter>
<filter id="filter1_f_2067_577" x="182.053" y="0.67939" width="214.351" height="203.385" filterUnits="userSpaceOnUse" color-interpolation-filters="sRGB">
<feFlood flood-opacity="0" result="BackgroundImageFix"/>
<feBlend mode="normal" in="SourceGraphic" in2="BackgroundImageFix" result="shape"/>
<feGaussianBlur stdDeviation="9.16031" result="effect1_foregroundBlur_2067_577"/>
</filter>
<filter id="filter2_f_2067_577" x="359.763" y="0.67939" width="214.351" height="203.385" filterUnits="userSpaceOnUse" color-interpolation-filters="sRGB">
<feFlood flood-opacity="0" result="BackgroundImageFix"/>
<feBlend mode="normal" in="SourceGraphic" in2="BackgroundImageFix" result="shape"/>
<feGaussianBlur stdDeviation="9.16031" result="effect1_foregroundBlur_2067_577"/>
</filter>
<filter id="filter3_f_2067_577" x="541.137" y="0.67939" width="214.351" height="203.385" filterUnits="userSpaceOnUse" color-interpolation-filters="sRGB">
<feFlood flood-opacity="0" result="BackgroundImageFix"/>
<feBlend mode="normal" in="SourceGraphic" in2="BackgroundImageFix" result="shape"/>
<feGaussianBlur stdDeviation="9.16031" result="effect1_foregroundBlur_2067_577"/>
</filter>
<filter id="filter4_f_2067_577" x="722.511" y="0.67939" width="214.351" height="203.385" filterUnits="userSpaceOnUse" color-interpolation-filters="sRGB">
<feFlood flood-opacity="0" result="BackgroundImageFix"/>
<feBlend mode="normal" in="SourceGraphic" in2="BackgroundImageFix" result="shape"/>
<feGaussianBlur stdDeviation="9.16031" result="effect1_foregroundBlur_2067_577"/>
</filter>
<filter id="filter5_f_2067_577" x="903.885" y="0.67939" width="214.351" height="203.385" filterUnits="userSpaceOnUse" color-interpolation-filters="sRGB">
<feFlood flood-opacity="0" result="BackgroundImageFix"/>
<feBlend mode="normal" in="SourceGraphic" in2="BackgroundImageFix" result="shape"/>
<feGaussianBlur stdDeviation="9.16031" result="effect1_foregroundBlur_2067_577"/>
</filter>
<filter id="filter6_f_2067_577" x="1081.6" y="0.67939" width="214.351" height="203.385" filterUnits="userSpaceOnUse" color-interpolation-filters="sRGB">
<feFlood flood-opacity="0" result="BackgroundImageFix"/>
<feBlend mode="normal" in="SourceGraphic" in2="BackgroundImageFix" result="shape"/>
<feGaussianBlur stdDeviation="9.16031" result="effect1_foregroundBlur_2067_577"/>
</filter>
<filter id="filter7_f_2067_577" x="1262.97" y="0.67939" width="214.351" height="203.385" filterUnits="userSpaceOnUse" color-interpolation-filters="sRGB">
<feFlood flood-opacity="0" result="BackgroundImageFix"/>
<feBlend mode="normal" in="SourceGraphic" in2="BackgroundImageFix" result="shape"/>
<feGaussianBlur stdDeviation="9.16031" result="effect1_foregroundBlur_2067_577"/>
</filter>
<filter id="filter8_f_2067_577" x="1440.68" y="0.67939" width="214.351" height="203.385" filterUnits="userSpaceOnUse" color-interpolation-filters="sRGB">
<feFlood flood-opacity="0" result="BackgroundImageFix"/>
<feBlend mode="normal" in="SourceGraphic" in2="BackgroundImageFix" result="shape"/>
<feGaussianBlur stdDeviation="9.16031" result="effect1_foregroundBlur_2067_577"/>
</filter>
<filter id="filter9_f_2067_577" x="1622.05" y="0.67939" width="214.351" height="203.385" filterUnits="userSpaceOnUse" color-interpolation-filters="sRGB">
<feFlood flood-opacity="0" result="BackgroundImageFix"/>
<feBlend mode="normal" in="SourceGraphic" in2="BackgroundImageFix" result="shape"/>
<feGaussianBlur stdDeviation="9.16031" result="effect1_foregroundBlur_2067_577"/>
</filter>
<filter id="filter10_f_2067_577" x="1799.76" y="0.67939" width="214.351" height="203.385" filterUnits="userSpaceOnUse" color-interpolation-filters="sRGB">
<feFlood flood-opacity="0" result="BackgroundImageFix"/>
<feBlend mode="normal" in="SourceGraphic" in2="BackgroundImageFix" result="shape"/>
<feGaussianBlur stdDeviation="9.16031" result="effect1_foregroundBlur_2067_577"/>
</filter>
<filter id="filter11_f_2067_577" x="1981.14" y="0.67939" width="214.351" height="203.385" filterUnits="userSpaceOnUse" color-interpolation-filters="sRGB">
<feFlood flood-opacity="0" result="BackgroundImageFix"/>
<feBlend mode="normal" in="SourceGraphic" in2="BackgroundImageFix" result="shape"/>
<feGaussianBlur stdDeviation="9.16031" result="effect1_foregroundBlur_2067_577"/>
</filter>
<filter id="filter12_f_2067_577" x="2162.51" y="0.67939" width="214.351" height="203.385" filterUnits="userSpaceOnUse" color-interpolation-filters="sRGB">
<feFlood flood-opacity="0" result="BackgroundImageFix"/>
<feBlend mode="normal" in="SourceGraphic" in2="BackgroundImageFix" result="shape"/>
<feGaussianBlur stdDeviation="9.16031" result="effect1_foregroundBlur_2067_577"/>
</filter>
<filter id="filter13_f_2067_577" x="2343.89" y="0.67939" width="214.351" height="203.385" filterUnits="userSpaceOnUse" color-interpolation-filters="sRGB">
<feFlood flood-opacity="0" result="BackgroundImageFix"/>
<feBlend mode="normal" in="SourceGraphic" in2="BackgroundImageFix" result="shape"/>
<feGaussianBlur stdDeviation="9.16031" result="effect1_foregroundBlur_2067_577"/>
</filter>
<filter id="filter14_f_2067_577" x="2521.6" y="0.67939" width="214.351" height="203.385" filterUnits="userSpaceOnUse" color-interpolation-filters="sRGB">
<feFlood flood-opacity="0" result="BackgroundImageFix"/>
<feBlend mode="normal" in="SourceGraphic" in2="BackgroundImageFix" result="shape"/>
<feGaussianBlur stdDeviation="9.16031" result="effect1_foregroundBlur_2067_577"/>
</filter>
<filter id="filter15_f_2067_577" x="2702.97" y="0.67939" width="214.351" height="203.385" filterUnits="userSpaceOnUse" color-interpolation-filters="sRGB">
<feFlood flood-opacity="0" result="BackgroundImageFix"/>
<feBlend mode="normal" in="SourceGraphic" in2="BackgroundImageFix" result="shape"/>
<feGaussianBlur stdDeviation="9.16031" result="effect1_foregroundBlur_2067_577"/>
</filter>
</defs>
</svg>
