<svg width="430" height="93" viewBox="0 0 430 93" fill="none" xmlns="http://www.w3.org/2000/svg">
<rect x="0.5" y="0.5" width="429" height="92" rx="19.5" fill="#EDEDED"/>
<rect x="0.5" y="0.5" width="429" height="92" rx="19.5" stroke="#E2E8F0"/>
<path d="M18.3011 57.5V41.1364H31.1705V57.5H28.6562V43.4801H20.8153V57.5H18.3011ZM42.4098 57.8409C40.9325 57.8409 39.6364 57.4893 38.5213 56.7862C37.4134 56.0831 36.5469 55.0994 35.9219 53.8352C35.304 52.571 34.995 51.0937 34.995 49.4034C34.995 47.6989 35.304 46.2109 35.9219 44.9396C36.5469 43.6683 37.4134 42.6811 38.5213 41.978C39.6364 41.2749 40.9325 40.9233 42.4098 40.9233C43.8871 40.9233 45.1797 41.2749 46.2876 41.978C47.4027 42.6811 48.2692 43.6683 48.8871 44.9396C49.5121 46.2109 49.8246 47.6989 49.8246 49.4034C49.8246 51.0937 49.5121 52.571 48.8871 53.8352C48.2692 55.0994 47.4027 56.0831 46.2876 56.7862C45.1797 57.4893 43.8871 57.8409 42.4098 57.8409ZM42.4098 55.5824C43.532 55.5824 44.4553 55.2947 45.1797 54.7195C45.9041 54.1442 46.4403 53.3878 46.7884 52.4503C47.1364 51.5128 47.3104 50.4972 47.3104 49.4034C47.3104 48.3097 47.1364 47.2905 46.7884 46.3459C46.4403 45.4013 45.9041 44.6378 45.1797 44.0554C44.4553 43.473 43.532 43.1818 42.4098 43.1818C41.2876 43.1818 40.3643 43.473 39.6399 44.0554C38.9155 44.6378 38.3793 45.4013 38.0312 46.3459C37.6832 47.2905 37.5092 48.3097 37.5092 49.4034C37.5092 50.4972 37.6832 51.5128 38.0312 52.4503C38.3793 53.3878 38.9155 54.1442 39.6399 54.7195C40.3643 55.2947 41.2876 55.5824 42.4098 55.5824ZM51.9153 62.1875V55.1562H53.2789C53.6127 54.8082 53.9004 54.4318 54.1419 54.027C54.3833 53.6222 54.5929 53.1428 54.7704 52.5888C54.9551 52.0277 55.1113 51.3459 55.2392 50.5433C55.367 49.7337 55.4806 48.7571 55.5801 47.6136L56.1341 41.1364H66.5318V55.1562H69.046V62.1875H66.5318V57.5H54.4295V62.1875H51.9153ZM56.1341 55.1562H64.0176V43.4801H58.4778L58.0517 47.6136C57.8741 49.3253 57.6539 50.8203 57.3912 52.0987C57.1284 53.3771 56.7093 54.3963 56.1341 55.1562ZM72.3832 57.5V41.1364H85.2525V57.5H82.7383V43.4801H74.8974V57.5H72.3832ZM92.3583 53.7926L100.242 41.1364H103.14V57.5H100.625V44.8438L92.7844 57.5H89.8441V41.1364H92.3583V53.7926ZM114.392 57.8409C112.858 57.8409 111.537 57.4787 110.429 56.7543C109.321 56.0298 108.469 55.032 107.872 53.7607C107.276 52.4893 106.977 51.0369 106.977 49.4034C106.977 47.7415 107.283 46.2749 107.894 45.0036C108.512 43.7251 109.371 42.7273 110.472 42.0099C111.58 41.2855 112.872 40.9233 114.35 40.9233C115.5 40.9233 116.537 41.1364 117.46 41.5625C118.384 41.9886 119.14 42.5852 119.73 43.3523C120.319 44.1193 120.685 45.0142 120.827 46.0369H118.313C118.121 45.2912 117.695 44.6307 117.034 44.0554C116.381 43.473 115.5 43.1818 114.392 43.1818C113.412 43.1818 112.553 43.4375 111.814 43.9489C111.083 44.4531 110.511 45.1669 110.099 46.0902C109.694 47.0064 109.492 48.0824 109.492 49.3182C109.492 50.5824 109.691 51.6832 110.088 52.6207C110.493 53.5582 111.061 54.2862 111.793 54.8047C112.531 55.3232 113.398 55.5824 114.392 55.5824C115.046 55.5824 115.639 55.4688 116.171 55.2415C116.704 55.0142 117.155 54.6875 117.524 54.2614C117.894 53.8352 118.156 53.3239 118.313 52.7273H120.827C120.685 53.6932 120.333 54.5632 119.772 55.3374C119.218 56.1044 118.483 56.7152 117.567 57.1697C116.658 57.6172 115.6 57.8409 114.392 57.8409ZM129.318 57.8835C128.281 57.8835 127.34 57.6882 126.494 57.2976C125.649 56.8999 124.978 56.3281 124.481 55.5824C123.984 54.8295 123.735 53.9205 123.735 52.8551C123.735 51.9176 123.92 51.1577 124.289 50.5753C124.659 49.9858 125.152 49.5241 125.77 49.1903C126.388 48.8565 127.07 48.608 127.816 48.4446C128.568 48.2741 129.325 48.1392 130.085 48.0398C131.079 47.9119 131.885 47.8161 132.503 47.7521C133.128 47.6811 133.583 47.5639 133.867 47.4006C134.158 47.2372 134.303 46.9531 134.303 46.5483V46.4631C134.303 45.4119 134.016 44.5952 133.441 44.0128C132.872 43.4304 132.009 43.1392 130.852 43.1392C129.651 43.1392 128.71 43.402 128.029 43.9276C127.347 44.4531 126.867 45.0142 126.59 45.6108L124.204 44.7585C124.63 43.7642 125.198 42.9901 125.909 42.4361C126.626 41.875 127.407 41.4844 128.252 41.2642C129.105 41.0369 129.943 40.9233 130.767 40.9233C131.292 40.9233 131.896 40.9872 132.578 41.1151C133.267 41.2358 133.931 41.4879 134.57 41.8714C135.216 42.255 135.752 42.8338 136.178 43.608C136.605 44.3821 136.818 45.419 136.818 46.7188V57.5H134.303V55.2841H134.176C134.005 55.6392 133.721 56.0192 133.323 56.424C132.926 56.8288 132.396 57.1733 131.736 57.4574C131.075 57.7415 130.269 57.8835 129.318 57.8835ZM129.701 55.625C130.695 55.625 131.534 55.4297 132.215 55.0391C132.904 54.6484 133.423 54.1442 133.771 53.5263C134.126 52.9084 134.303 52.2585 134.303 51.5767V49.2756C134.197 49.4034 133.963 49.5206 133.6 49.6271C133.245 49.7266 132.833 49.8153 132.365 49.8935C131.903 49.9645 131.452 50.0284 131.012 50.0852C130.578 50.1349 130.227 50.1776 129.957 50.2131C129.303 50.2983 128.693 50.4368 128.124 50.6286C127.563 50.8132 127.109 51.0937 126.761 51.4702C126.42 51.8395 126.249 52.3437 126.249 52.983C126.249 53.8565 126.573 54.517 127.219 54.9645C127.872 55.4048 128.7 55.625 129.701 55.625ZM139.18 43.4801V41.1364H152.475V43.4801H147.106V57.5H144.592V43.4801H139.18ZM158.316 47.0597H163.004C164.921 47.0597 166.388 47.5462 167.404 48.5192C168.419 49.4922 168.927 50.7244 168.927 52.2159C168.927 53.196 168.7 54.0874 168.245 54.8899C167.791 55.6854 167.123 56.321 166.242 56.7969C165.362 57.2656 164.282 57.5 163.004 57.5H156.143V41.1364H158.657V55.1562H163.004C163.998 55.1562 164.815 54.8935 165.454 54.3679C166.093 53.8423 166.413 53.1676 166.413 52.3438C166.413 51.4773 166.093 50.7706 165.454 50.2237C164.815 49.6768 163.998 49.4034 163.004 49.4034H158.316V47.0597ZM179.402 57.8409C177.868 57.8409 176.547 57.4787 175.439 56.7543C174.331 56.0298 173.479 55.032 172.882 53.7607C172.286 52.4893 171.987 51.0369 171.987 49.4034C171.987 47.7415 172.293 46.2749 172.903 45.0036C173.521 43.7251 174.381 42.7273 175.482 42.0099C176.589 41.2855 177.882 40.9233 179.359 40.9233C180.51 40.9233 181.547 41.1364 182.47 41.5625C183.393 41.9886 184.15 42.5852 184.739 43.3523C185.329 44.1193 185.695 45.0142 185.837 46.0369H183.322C183.131 45.2912 182.705 44.6307 182.044 44.0554C181.391 43.473 180.51 43.1818 179.402 43.1818C178.422 43.1818 177.563 43.4375 176.824 43.9489C176.092 44.4531 175.521 45.1669 175.109 46.0902C174.704 47.0064 174.501 48.0824 174.501 49.3182C174.501 50.5824 174.7 51.6832 175.098 52.6207C175.503 53.5582 176.071 54.2862 176.803 54.8047C177.541 55.3232 178.408 55.5824 179.402 55.5824C180.055 55.5824 180.648 55.4688 181.181 55.2415C181.714 55.0142 182.165 54.6875 182.534 54.2614C182.903 53.8352 183.166 53.3239 183.322 52.7273H185.837C185.695 53.6932 185.343 54.5632 184.782 55.3374C184.228 56.1044 183.493 56.7152 182.577 57.1697C181.668 57.6172 180.609 57.8409 179.402 57.8409ZM199.356 57.5V43.4375H195.009C194.029 43.4375 193.259 43.6648 192.697 44.1193C192.136 44.5739 191.856 45.1989 191.856 45.9943C191.856 46.7756 192.108 47.3899 192.612 47.8374C193.124 48.2848 193.823 48.5085 194.711 48.5085H199.995V50.8523H194.711C193.603 50.8523 192.648 50.657 191.845 50.2663C191.043 49.8757 190.425 49.3182 189.991 48.5938C189.558 47.8622 189.342 46.9957 189.342 45.9943C189.342 44.9858 189.569 44.1193 190.023 43.3949C190.478 42.6705 191.128 42.1129 191.973 41.7223C192.825 41.3317 193.837 41.1364 195.009 41.1364H201.742V57.5H199.356ZM188.447 57.5L193.092 49.3608H195.819L191.174 57.5H188.447Z" fill="#A0AEC0"/>
<path d="M394.475 48.4749C395.842 47.108 395.842 44.892 394.475 43.5251L372.201 21.2513C370.834 19.8844 368.618 19.8844 367.251 21.2513C365.884 22.6181 365.884 24.8342 367.251 26.201L387.05 46L367.251 65.799C365.884 67.1658 365.884 69.3819 367.251 70.7487C368.618 72.1156 370.834 72.1156 372.201 70.7487L394.475 48.4749ZM389 46L389 49.5L392 49.5L392 46L392 42.5L389 42.5L389 46Z" fill="#9A9A9A"/>
</svg>
